%TF.GenerationSoftware,KiCad,Pcbnew,9.0.3*%
%TF.CreationDate,2025-07-31T16:26:09+05:30*%
%TF.ProjectId,new_ledMatrix,6e65775f-6c65-4644-9d61-747269782e6b,rev?*%
%TF.SameCoordinates,Original*%
%TF.FileFunction,Copper,L2,Bot*%
%TF.FilePolarity,Positive*%
%FSLAX46Y46*%
G04 Gerber Fmt 4.6, Leading zero omitted, Abs format (unit mm)*
G04 Created by KiCad (PCBNEW 9.0.3) date 2025-07-31 16:26:09*
%MOMM*%
%LPD*%
G01*
G04 APERTURE LIST*
G04 Aperture macros list*
%AMRoundRect*
0 Rectangle with rounded corners*
0 $1 Rounding radius*
0 $2 $3 $4 $5 $6 $7 $8 $9 X,Y pos of 4 corners*
0 Add a 4 corners polygon primitive as box body*
4,1,4,$2,$3,$4,$5,$6,$7,$8,$9,$2,$3,0*
0 Add four circle primitives for the rounded corners*
1,1,$1+$1,$2,$3*
1,1,$1+$1,$4,$5*
1,1,$1+$1,$6,$7*
1,1,$1+$1,$8,$9*
0 Add four rect primitives between the rounded corners*
20,1,$1+$1,$2,$3,$4,$5,0*
20,1,$1+$1,$4,$5,$6,$7,0*
20,1,$1+$1,$6,$7,$8,$9,0*
20,1,$1+$1,$8,$9,$2,$3,0*%
G04 Aperture macros list end*
%TA.AperFunction,SMDPad,CuDef*%
%ADD10C,2.500000*%
%TD*%
%TA.AperFunction,SMDPad,CuDef*%
%ADD11RoundRect,0.250000X1.000000X-1.950000X1.000000X1.950000X-1.000000X1.950000X-1.000000X-1.950000X0*%
%TD*%
%TA.AperFunction,SMDPad,CuDef*%
%ADD12RoundRect,0.250000X-0.312500X-0.625000X0.312500X-0.625000X0.312500X0.625000X-0.312500X0.625000X0*%
%TD*%
%TA.AperFunction,ViaPad*%
%ADD13C,0.600000*%
%TD*%
%TA.AperFunction,Conductor*%
%ADD14C,0.200000*%
%TD*%
%TA.AperFunction,Conductor*%
%ADD15C,2.000000*%
%TD*%
%TA.AperFunction,Conductor*%
%ADD16C,0.250000*%
%TD*%
%TA.AperFunction,Conductor*%
%ADD17C,1.500000*%
%TD*%
G04 APERTURE END LIST*
D10*
%TO.P,TP1,1,1*%
%TO.N,+5V*%
X125750000Y-71700000D03*
%TD*%
%TO.P,TP3,1,1*%
%TO.N,Net-(R1-Pad1)*%
X111250000Y-71800000D03*
%TD*%
%TO.P,TP2,1,1*%
%TO.N,GND*%
X141500000Y-62050000D03*
%TD*%
D11*
%TO.P,C1,1*%
%TO.N,+5V*%
X133090000Y-73172500D03*
%TO.P,C1,2*%
%TO.N,GND*%
X133090000Y-64772500D03*
%TD*%
D12*
%TO.P,R1,1*%
%TO.N,Net-(R1-Pad1)*%
X110287500Y-68100000D03*
%TO.P,R1,2*%
%TO.N,Net-(D1-DIN)*%
X113212500Y-68100000D03*
%TD*%
D13*
%TO.N,Net-(D1-DIN)*%
X120360000Y-64850000D03*
%TO.N,GND*%
X120360000Y-63100000D03*
%TO.N,+5V*%
X170050000Y-76405000D03*
X155290000Y-68955000D03*
X132010000Y-80445000D03*
X158720000Y-76455000D03*
X152930000Y-76425000D03*
X149510000Y-91885000D03*
X106740000Y-76485000D03*
X155260000Y-80435000D03*
X126190000Y-68995000D03*
X161040000Y-68955000D03*
X120450000Y-68975000D03*
X135420000Y-76435000D03*
X143660000Y-68995000D03*
X137820000Y-80475000D03*
X147090000Y-87955000D03*
X149450000Y-80415000D03*
X137790000Y-69015000D03*
X129680000Y-87930000D03*
X160890000Y-80435000D03*
X112390000Y-76485000D03*
X149490000Y-69015000D03*
X137790000Y-69015000D03*
X141340000Y-64835000D03*
X120450000Y-68975000D03*
X103260000Y-80455000D03*
X108760000Y-68945000D03*
X114650000Y-68995000D03*
X114580000Y-80455000D03*
X135470000Y-87915000D03*
X123880000Y-87925000D03*
X120410000Y-80415000D03*
X166550000Y-80445000D03*
X118060000Y-87955000D03*
X129710000Y-64740000D03*
X141260000Y-76455000D03*
X135550000Y-64865000D03*
X126140000Y-80425000D03*
X158790000Y-87945000D03*
X147100000Y-76475000D03*
X147190000Y-64855000D03*
X126140000Y-91915000D03*
X131970000Y-69005000D03*
X108860000Y-80455000D03*
X112290000Y-87935000D03*
X135550000Y-64865000D03*
X131970000Y-91935000D03*
X137770000Y-91895000D03*
X141290000Y-87955000D03*
X118050000Y-76475000D03*
X123810000Y-76455000D03*
X164570000Y-87945000D03*
X143690000Y-80425000D03*
X123860000Y-64850000D03*
X143520000Y-91895000D03*
X120320000Y-91915000D03*
X153020000Y-64835000D03*
X129580000Y-76435000D03*
X152930000Y-87945000D03*
X164440000Y-76435000D03*
%TD*%
D14*
%TO.N,Net-(R1-Pad1)*%
X110287500Y-70837500D02*
X111250000Y-71800000D01*
X110287500Y-68100000D02*
X110287500Y-70837500D01*
D15*
%TO.N,GND*%
X135812500Y-62050000D02*
X141500000Y-62050000D01*
X133090000Y-64772500D02*
X135812500Y-62050000D01*
%TO.N,+5V*%
X133090000Y-73172500D02*
X131909000Y-73172500D01*
X131909000Y-73172500D02*
X123860000Y-65123500D01*
X130436500Y-71700000D02*
X125750000Y-71700000D01*
X131909000Y-73172500D02*
X130436500Y-71700000D01*
D14*
X147046750Y-64711750D02*
X147190000Y-64855000D01*
X147046750Y-62300000D02*
X147046750Y-64711750D01*
%TO.N,Net-(D1-DIN)*%
X118750000Y-67000000D02*
X120360000Y-65390000D01*
X114312500Y-67000000D02*
X118750000Y-67000000D01*
X113212500Y-68100000D02*
X114312500Y-67000000D01*
X120360000Y-65390000D02*
X120360000Y-64850000D01*
%TO.N,+5V*%
X108760000Y-74465000D02*
X106740000Y-76485000D01*
X108760000Y-68945000D02*
X108760000Y-74465000D01*
D16*
X106740000Y-76485000D02*
X112390000Y-76485000D01*
X112390000Y-75730000D02*
X112390000Y-76485000D01*
X114700000Y-73420000D02*
X112390000Y-75730000D01*
D15*
%TO.N,GND*%
X133090000Y-64772500D02*
X130827500Y-62510000D01*
D16*
%TO.N,+5V*%
X153450000Y-87945000D02*
X149510000Y-91885000D01*
X108910000Y-79580000D02*
X114670000Y-79580000D01*
X123830000Y-76435000D02*
X123810000Y-76455000D01*
X147090000Y-73420000D02*
X152920000Y-73420000D01*
X164570000Y-82425000D02*
X164570000Y-87945000D01*
X129710000Y-64740000D02*
X129710000Y-65640000D01*
X103300000Y-79580000D02*
X103300000Y-80415000D01*
X164570000Y-87945000D02*
X158790000Y-87945000D01*
X118120000Y-76405000D02*
X118050000Y-76475000D01*
X149510000Y-91885000D02*
X143530000Y-91885000D01*
X131975000Y-69005000D02*
X131970000Y-69005000D01*
X141280000Y-73420000D02*
X141280000Y-76435000D01*
X135455000Y-87930000D02*
X135470000Y-87915000D01*
D15*
%TO.N,GND*%
X120950000Y-62510000D02*
X120360000Y-63100000D01*
D16*
%TO.N,+5V*%
X103300000Y-80415000D02*
X103260000Y-80455000D01*
X132040000Y-79580000D02*
X132040000Y-80415000D01*
X132010000Y-91895000D02*
X131970000Y-91935000D01*
X153020000Y-66685000D02*
X155290000Y-68955000D01*
X135450000Y-73420000D02*
X141280000Y-73420000D01*
X126140000Y-91915000D02*
X120320000Y-91915000D01*
X141280000Y-76435000D02*
X141260000Y-76455000D01*
X137790000Y-68385000D02*
X141340000Y-64835000D01*
X129630000Y-76385000D02*
X129580000Y-76435000D01*
X155160000Y-79580000D02*
X160850000Y-79580000D01*
D15*
%TO.N,GND*%
X130827500Y-62510000D02*
X120950000Y-62510000D01*
D16*
%TO.N,+5V*%
X147090000Y-87955000D02*
X152920000Y-87955000D01*
X133615000Y-69005000D02*
X135550000Y-67070000D01*
X129675000Y-87925000D02*
X129680000Y-87930000D01*
X123860000Y-65565000D02*
X120450000Y-68975000D01*
X152930000Y-87945000D02*
X153450000Y-87945000D01*
X114650000Y-73370000D02*
X114700000Y-73420000D01*
X120400000Y-79580000D02*
X126060000Y-79580000D01*
X158740000Y-76435000D02*
X158720000Y-76455000D01*
D17*
X123860000Y-64850000D02*
X123860000Y-65123500D01*
D16*
X108910000Y-79580000D02*
X108910000Y-80405000D01*
X135550000Y-64865000D02*
X135550000Y-66775000D01*
X153020000Y-64835000D02*
X153020000Y-66685000D01*
X164430000Y-73420000D02*
X164430000Y-76425000D01*
X155160000Y-80335000D02*
X155260000Y-80435000D01*
X118060000Y-87955000D02*
X112310000Y-87955000D01*
X147090000Y-73420000D02*
X147100000Y-73430000D01*
X131970000Y-91935000D02*
X126160000Y-91935000D01*
X164430000Y-73420000D02*
X169720000Y-73420000D01*
X120320000Y-91915000D02*
X120320000Y-90215000D01*
X135550000Y-66775000D02*
X137790000Y-69015000D01*
X129710000Y-65640000D02*
X132000000Y-67930000D01*
X165685000Y-79580000D02*
X166550000Y-80445000D01*
X129630000Y-73420000D02*
X135450000Y-73420000D01*
X143520000Y-91895000D02*
X137770000Y-91895000D01*
X160850000Y-79580000D02*
X160850000Y-80395000D01*
X123830000Y-73420000D02*
X123830000Y-76435000D01*
X147190000Y-64855000D02*
X147190000Y-66715000D01*
X135550000Y-67070000D02*
X135550000Y-64865000D01*
X114670000Y-68975000D02*
X114650000Y-68995000D01*
X120400000Y-79580000D02*
X120400000Y-80405000D01*
X118120000Y-73420000D02*
X123830000Y-73420000D01*
X120450000Y-68975000D02*
X114670000Y-68975000D01*
X126060000Y-80345000D02*
X126140000Y-80425000D01*
X135450000Y-76405000D02*
X135420000Y-76435000D01*
X141250000Y-87915000D02*
X141290000Y-87955000D01*
X123830000Y-73420000D02*
X129630000Y-73420000D01*
X131970000Y-69005000D02*
X133615000Y-69005000D01*
X141290000Y-87955000D02*
X147090000Y-87955000D01*
X152920000Y-73420000D02*
X158740000Y-73420000D01*
X135450000Y-73420000D02*
X135450000Y-76405000D01*
X103300000Y-79580000D02*
X108910000Y-79580000D01*
X123860000Y-65123500D02*
X126190000Y-67453500D01*
X170050000Y-73750000D02*
X170050000Y-76405000D01*
X155160000Y-79580000D02*
X155160000Y-80335000D01*
X158740000Y-73420000D02*
X158740000Y-76435000D01*
X132040000Y-80415000D02*
X132010000Y-80445000D01*
X143670000Y-79580000D02*
X143670000Y-80405000D01*
X164430000Y-76425000D02*
X164440000Y-76435000D01*
X143660000Y-68385000D02*
X147190000Y-64855000D01*
X123850000Y-87955000D02*
X123880000Y-87925000D01*
X152920000Y-73420000D02*
X152920000Y-76415000D01*
X126060000Y-79580000D02*
X132040000Y-79580000D01*
X126160000Y-91935000D02*
X126140000Y-91915000D01*
X155290000Y-68955000D02*
X161040000Y-68955000D01*
X141340000Y-66675000D02*
X143660000Y-68995000D01*
X143670000Y-79580000D02*
X149380000Y-79580000D01*
X120400000Y-80405000D02*
X120410000Y-80415000D01*
X135470000Y-87915000D02*
X141250000Y-87915000D01*
X108910000Y-80405000D02*
X108860000Y-80455000D01*
X137770000Y-91895000D02*
X132010000Y-91895000D01*
X118060000Y-87955000D02*
X123850000Y-87955000D01*
X152920000Y-76415000D02*
X152930000Y-76425000D01*
X149380000Y-79580000D02*
X149380000Y-80345000D01*
X126190000Y-67453500D02*
X126190000Y-68995000D01*
X149490000Y-68365000D02*
X153020000Y-64835000D01*
X132000000Y-68980000D02*
X131975000Y-69005000D01*
X114650000Y-68995000D02*
X114650000Y-73370000D01*
X103645000Y-79580000D02*
X103300000Y-79580000D01*
X149380000Y-79580000D02*
X155160000Y-79580000D01*
X158740000Y-73420000D02*
X164430000Y-73420000D01*
X143660000Y-68995000D02*
X143660000Y-68385000D01*
X141280000Y-73420000D02*
X147090000Y-73420000D01*
X166550000Y-80445000D02*
X164570000Y-82425000D01*
X123880000Y-87925000D02*
X129675000Y-87925000D01*
X106740000Y-76485000D02*
X103645000Y-79580000D01*
X137860000Y-79580000D02*
X137860000Y-80435000D01*
X137860000Y-80435000D02*
X137820000Y-80475000D01*
X149490000Y-69015000D02*
X149490000Y-68365000D01*
X143670000Y-80405000D02*
X143690000Y-80425000D01*
X147190000Y-66715000D02*
X149490000Y-69015000D01*
X152920000Y-87955000D02*
X152930000Y-87945000D01*
X114670000Y-79580000D02*
X120400000Y-79580000D01*
X106805000Y-76550000D02*
X106740000Y-76485000D01*
X132000000Y-67930000D02*
X132000000Y-68980000D01*
X143530000Y-91885000D02*
X143520000Y-91895000D01*
X120320000Y-90215000D02*
X118060000Y-87955000D01*
X141340000Y-64835000D02*
X141340000Y-66675000D01*
X160850000Y-79580000D02*
X165685000Y-79580000D01*
X169720000Y-73420000D02*
X170050000Y-73750000D01*
X160850000Y-80395000D02*
X160890000Y-80435000D01*
X137790000Y-69015000D02*
X137790000Y-68385000D01*
X129680000Y-87930000D02*
X135455000Y-87930000D01*
X129630000Y-73420000D02*
X129630000Y-76385000D01*
X158790000Y-87945000D02*
X153450000Y-87945000D01*
X114670000Y-79580000D02*
X114670000Y-80365000D01*
X126060000Y-79580000D02*
X126060000Y-80345000D01*
X147100000Y-73430000D02*
X147100000Y-76475000D01*
X112310000Y-87955000D02*
X112290000Y-87935000D01*
X137860000Y-79580000D02*
X143670000Y-79580000D01*
X114670000Y-80365000D02*
X114580000Y-80455000D01*
X149380000Y-80345000D02*
X149450000Y-80415000D01*
X118120000Y-73420000D02*
X118120000Y-76405000D01*
X132040000Y-79580000D02*
X137860000Y-79580000D01*
X114700000Y-73420000D02*
X118120000Y-73420000D01*
%TD*%
%TA.AperFunction,Conductor*%
%TO.N,+5V*%
G36*
X155742539Y-59370185D02*
G01*
X155788294Y-59422989D01*
X155799500Y-59474500D01*
X155799500Y-65015891D01*
X155833608Y-65143187D01*
X155863747Y-65195388D01*
X155899500Y-65257314D01*
X155992686Y-65350500D01*
X156091521Y-65407563D01*
X156106810Y-65416390D01*
X156106814Y-65416392D01*
X156234108Y-65450500D01*
X156365892Y-65450500D01*
X167025500Y-65450500D01*
X167092539Y-65470185D01*
X167138294Y-65522989D01*
X167149500Y-65574500D01*
X167149500Y-70665891D01*
X167183608Y-70793187D01*
X167202196Y-70825382D01*
X167249500Y-70907314D01*
X167342686Y-71000500D01*
X167456814Y-71066392D01*
X167584108Y-71100500D01*
X167715892Y-71100500D01*
X172275500Y-71100500D01*
X172342539Y-71120185D01*
X172388294Y-71172989D01*
X172399500Y-71224500D01*
X172399500Y-85575500D01*
X172379815Y-85642539D01*
X172327011Y-85688294D01*
X172275500Y-85699500D01*
X167984108Y-85699500D01*
X167856812Y-85733608D01*
X167742686Y-85799500D01*
X167742683Y-85799502D01*
X167649502Y-85892683D01*
X167649500Y-85892686D01*
X167583608Y-86006812D01*
X167549500Y-86134108D01*
X167549500Y-91725500D01*
X167529815Y-91792539D01*
X167477011Y-91838294D01*
X167425500Y-91849500D01*
X156763599Y-91849500D01*
X156761381Y-91848927D01*
X156697767Y-91849500D01*
X156633961Y-91849500D01*
X156632454Y-91849712D01*
X156631369Y-91849859D01*
X156629751Y-91850072D01*
X156568715Y-91867014D01*
X156568716Y-91867015D01*
X156568142Y-91867174D01*
X156506814Y-91883608D01*
X156504829Y-91884753D01*
X156502619Y-91885367D01*
X156448297Y-91917386D01*
X156447335Y-91917947D01*
X156392681Y-91949502D01*
X156390504Y-91951172D01*
X156390482Y-91951190D01*
X156389198Y-91952174D01*
X156344899Y-91997278D01*
X156344116Y-91998068D01*
X156299495Y-92042690D01*
X156297787Y-92044914D01*
X156297761Y-92044950D01*
X156296821Y-92046174D01*
X156265707Y-92101203D01*
X156265156Y-92102168D01*
X156233606Y-92156816D01*
X156232506Y-92159472D01*
X156231923Y-92160877D01*
X156216091Y-92222159D01*
X156216092Y-92222160D01*
X156215940Y-92222744D01*
X156199500Y-92284108D01*
X156199500Y-92286398D01*
X156198927Y-92288617D01*
X156199495Y-92351666D01*
X156199500Y-92352783D01*
X156199500Y-92418366D01*
X156200183Y-92428128D01*
X156243844Y-97274383D01*
X156224764Y-97341597D01*
X156172375Y-97387826D01*
X156119849Y-97399500D01*
X117824500Y-97399500D01*
X117757461Y-97379815D01*
X117711706Y-97327011D01*
X117700500Y-97275500D01*
X117700500Y-91884110D01*
X117700500Y-91884108D01*
X117666392Y-91756814D01*
X117600500Y-91642686D01*
X117507314Y-91549500D01*
X117450250Y-91516554D01*
X117393187Y-91483608D01*
X117329539Y-91466554D01*
X117265892Y-91449500D01*
X117265891Y-91449500D01*
X106174500Y-91449500D01*
X106107461Y-91429815D01*
X106061706Y-91377011D01*
X106050500Y-91325500D01*
X106050500Y-86284110D01*
X106050500Y-86284108D01*
X106016392Y-86156814D01*
X105950500Y-86042686D01*
X105857314Y-85949500D01*
X105758910Y-85892686D01*
X105743187Y-85883608D01*
X105679539Y-85866554D01*
X105615892Y-85849500D01*
X105615891Y-85849500D01*
X100924500Y-85849500D01*
X100857461Y-85829815D01*
X100811706Y-85777011D01*
X100800500Y-85725500D01*
X100800500Y-75172486D01*
X131340001Y-75172486D01*
X131350494Y-75275197D01*
X131405641Y-75441619D01*
X131405643Y-75441624D01*
X131497684Y-75590845D01*
X131621654Y-75714815D01*
X131770875Y-75806856D01*
X131770880Y-75806858D01*
X131937302Y-75862005D01*
X131937309Y-75862006D01*
X132040019Y-75872499D01*
X132839999Y-75872499D01*
X133340000Y-75872499D01*
X134139972Y-75872499D01*
X134139986Y-75872498D01*
X134242697Y-75862005D01*
X134409119Y-75806858D01*
X134409124Y-75806856D01*
X134558345Y-75714815D01*
X134682315Y-75590845D01*
X134774356Y-75441624D01*
X134774358Y-75441619D01*
X134829505Y-75275197D01*
X134829506Y-75275190D01*
X134839999Y-75172486D01*
X134840000Y-75172473D01*
X134840000Y-73422500D01*
X133340000Y-73422500D01*
X133340000Y-75872499D01*
X132839999Y-75872499D01*
X132840000Y-75872498D01*
X132840000Y-73422500D01*
X131340001Y-73422500D01*
X131340001Y-75172486D01*
X100800500Y-75172486D01*
X100800500Y-71224500D01*
X100820185Y-71157461D01*
X100872989Y-71111706D01*
X100924500Y-71100500D01*
X105615890Y-71100500D01*
X105615892Y-71100500D01*
X105743186Y-71066392D01*
X105857314Y-71000500D01*
X105950500Y-70907314D01*
X106016392Y-70793186D01*
X106050500Y-70665892D01*
X106050500Y-67424983D01*
X109224500Y-67424983D01*
X109224500Y-68775001D01*
X109224501Y-68775018D01*
X109235000Y-68877796D01*
X109235001Y-68877799D01*
X109290185Y-69044331D01*
X109290186Y-69044334D01*
X109382288Y-69193656D01*
X109506344Y-69317712D01*
X109628097Y-69392809D01*
X109674821Y-69444755D01*
X109687000Y-69498347D01*
X109687000Y-70758439D01*
X109686999Y-70758443D01*
X109686999Y-70916557D01*
X109693765Y-70941811D01*
X109694260Y-70955922D01*
X109688957Y-70976639D01*
X109688448Y-70998020D01*
X109677727Y-71022256D01*
X109676659Y-71024104D01*
X109676650Y-71024123D01*
X109588842Y-71236112D01*
X109529453Y-71457759D01*
X109529451Y-71457770D01*
X109499500Y-71685258D01*
X109499500Y-71914741D01*
X109516273Y-72042137D01*
X109529452Y-72142238D01*
X109588842Y-72363887D01*
X109676650Y-72575876D01*
X109676657Y-72575890D01*
X109791392Y-72774617D01*
X109931081Y-72956661D01*
X109931089Y-72956670D01*
X110093330Y-73118911D01*
X110093338Y-73118918D01*
X110275382Y-73258607D01*
X110275385Y-73258608D01*
X110275388Y-73258611D01*
X110474112Y-73373344D01*
X110474117Y-73373346D01*
X110474123Y-73373349D01*
X110565480Y-73411190D01*
X110686113Y-73461158D01*
X110907762Y-73520548D01*
X111135266Y-73550500D01*
X111135273Y-73550500D01*
X111364727Y-73550500D01*
X111364734Y-73550500D01*
X111592238Y-73520548D01*
X111813887Y-73461158D01*
X112025888Y-73373344D01*
X112224612Y-73258611D01*
X112406661Y-73118919D01*
X112406665Y-73118914D01*
X112406670Y-73118911D01*
X112423964Y-73101617D01*
X124701934Y-73101617D01*
X124701934Y-73101618D01*
X124775666Y-73158194D01*
X124974330Y-73272893D01*
X124974340Y-73272897D01*
X125186269Y-73360681D01*
X125407862Y-73420057D01*
X125635289Y-73449998D01*
X125635306Y-73450000D01*
X125864694Y-73450000D01*
X125864710Y-73449998D01*
X126092137Y-73420057D01*
X126313730Y-73360681D01*
X126525659Y-73272897D01*
X126525669Y-73272893D01*
X126541504Y-73263751D01*
X126724327Y-73158197D01*
X126724334Y-73158192D01*
X126798064Y-73101617D01*
X125750000Y-72053553D01*
X124701934Y-73101617D01*
X112423964Y-73101617D01*
X112568911Y-72956670D01*
X112568914Y-72956665D01*
X112568919Y-72956661D01*
X112708611Y-72774612D01*
X112823344Y-72575888D01*
X112911158Y-72363887D01*
X112970548Y-72142238D01*
X113000500Y-71914734D01*
X113000500Y-71685266D01*
X112987340Y-71585305D01*
X124000000Y-71585305D01*
X124000000Y-71814694D01*
X124000001Y-71814710D01*
X124029942Y-72042137D01*
X124089318Y-72263730D01*
X124177102Y-72475659D01*
X124177106Y-72475669D01*
X124291799Y-72674324D01*
X124291805Y-72674331D01*
X124348381Y-72748064D01*
X125396446Y-71700000D01*
X125396446Y-71699999D01*
X126103553Y-71699999D01*
X126103553Y-71700000D01*
X127151617Y-72748064D01*
X127208192Y-72674334D01*
X127208197Y-72674327D01*
X127322893Y-72475668D01*
X127322897Y-72475659D01*
X127410681Y-72263730D01*
X127470057Y-72042137D01*
X127499998Y-71814710D01*
X127500000Y-71814694D01*
X127500000Y-71585305D01*
X127499998Y-71585289D01*
X127470057Y-71357860D01*
X127428149Y-71201457D01*
X127420393Y-71172513D01*
X131340000Y-71172513D01*
X131340000Y-72922500D01*
X132840000Y-72922500D01*
X133340000Y-72922500D01*
X134839999Y-72922500D01*
X134839999Y-71172528D01*
X134839998Y-71172513D01*
X134829505Y-71069802D01*
X134774358Y-70903380D01*
X134774356Y-70903375D01*
X134682315Y-70754154D01*
X134558345Y-70630184D01*
X134409124Y-70538143D01*
X134409119Y-70538141D01*
X134242697Y-70482994D01*
X134242690Y-70482993D01*
X134139986Y-70472500D01*
X133340000Y-70472500D01*
X133340000Y-72922500D01*
X132840000Y-72922500D01*
X132840000Y-70472500D01*
X132040028Y-70472500D01*
X132040012Y-70472501D01*
X131937302Y-70482994D01*
X131770880Y-70538141D01*
X131770875Y-70538143D01*
X131621654Y-70630184D01*
X131497684Y-70754154D01*
X131405643Y-70903375D01*
X131405641Y-70903380D01*
X131350494Y-71069802D01*
X131350493Y-71069809D01*
X131340000Y-71172513D01*
X127420393Y-71172513D01*
X127410681Y-71136269D01*
X127322897Y-70924340D01*
X127322893Y-70924330D01*
X127208194Y-70725666D01*
X127151618Y-70651934D01*
X127151617Y-70651934D01*
X126103553Y-71699999D01*
X125396446Y-71699999D01*
X124348380Y-70651934D01*
X124291810Y-70725659D01*
X124291801Y-70725673D01*
X124177106Y-70924330D01*
X124177102Y-70924340D01*
X124089318Y-71136269D01*
X124029942Y-71357862D01*
X124000001Y-71585289D01*
X124000000Y-71585305D01*
X112987340Y-71585305D01*
X112970548Y-71457762D01*
X112911158Y-71236113D01*
X112854985Y-71100499D01*
X112823349Y-71024123D01*
X112823346Y-71024117D01*
X112823344Y-71024112D01*
X112708611Y-70825388D01*
X112708608Y-70825385D01*
X112708607Y-70825382D01*
X112568918Y-70643338D01*
X112568911Y-70643330D01*
X112406670Y-70481089D01*
X112406665Y-70481085D01*
X112406661Y-70481081D01*
X112359258Y-70444707D01*
X112224617Y-70341392D01*
X112150118Y-70298380D01*
X124701934Y-70298380D01*
X125749999Y-71346446D01*
X126798064Y-70298381D01*
X126798064Y-70298380D01*
X126724331Y-70241805D01*
X126724324Y-70241799D01*
X126525669Y-70127106D01*
X126525659Y-70127102D01*
X126313730Y-70039318D01*
X126092137Y-69979942D01*
X125864710Y-69950001D01*
X125864694Y-69950000D01*
X125635306Y-69950000D01*
X125635289Y-69950001D01*
X125407862Y-69979942D01*
X125186269Y-70039318D01*
X124974340Y-70127102D01*
X124974330Y-70127106D01*
X124775673Y-70241801D01*
X124775659Y-70241810D01*
X124701934Y-70298380D01*
X112150118Y-70298380D01*
X112025890Y-70226657D01*
X112025876Y-70226650D01*
X111813887Y-70138842D01*
X111770072Y-70127102D01*
X111592238Y-70079452D01*
X111554215Y-70074446D01*
X111364741Y-70049500D01*
X111364734Y-70049500D01*
X111135266Y-70049500D01*
X111135260Y-70049500D01*
X111135255Y-70049501D01*
X111028185Y-70063597D01*
X110959150Y-70052831D01*
X110906894Y-70006451D01*
X110888000Y-69940658D01*
X110888000Y-69498347D01*
X110907685Y-69431308D01*
X110946901Y-69392810D01*
X111068656Y-69317712D01*
X111192712Y-69193656D01*
X111284814Y-69044334D01*
X111339999Y-68877797D01*
X111350500Y-68775009D01*
X111350499Y-67424992D01*
X111350498Y-67424983D01*
X112149500Y-67424983D01*
X112149500Y-68775001D01*
X112149501Y-68775018D01*
X112160000Y-68877796D01*
X112160001Y-68877799D01*
X112215185Y-69044331D01*
X112215186Y-69044334D01*
X112307288Y-69193656D01*
X112431344Y-69317712D01*
X112580666Y-69409814D01*
X112747203Y-69464999D01*
X112849991Y-69475500D01*
X113575008Y-69475499D01*
X113575016Y-69475498D01*
X113575019Y-69475498D01*
X113631302Y-69469748D01*
X113677797Y-69464999D01*
X113844334Y-69409814D01*
X113993656Y-69317712D01*
X114117712Y-69193656D01*
X114209814Y-69044334D01*
X114264999Y-68877797D01*
X114275500Y-68775009D01*
X114275499Y-67937596D01*
X114295183Y-67870558D01*
X114311818Y-67849916D01*
X114524916Y-67636819D01*
X114586239Y-67603334D01*
X114612597Y-67600500D01*
X118663331Y-67600500D01*
X118663347Y-67600501D01*
X118670943Y-67600501D01*
X118829054Y-67600501D01*
X118829057Y-67600501D01*
X118981785Y-67559577D01*
X119031904Y-67530639D01*
X119118716Y-67480520D01*
X119230520Y-67368716D01*
X119230520Y-67368714D01*
X119240728Y-67358507D01*
X119240730Y-67358504D01*
X120718506Y-65880728D01*
X120718511Y-65880724D01*
X120728714Y-65870520D01*
X120728716Y-65870520D01*
X120840520Y-65758716D01*
X120902998Y-65650500D01*
X120919577Y-65621785D01*
X120960501Y-65469057D01*
X120960501Y-65429764D01*
X120980186Y-65362725D01*
X120981399Y-65360873D01*
X121069390Y-65229185D01*
X121069390Y-65229184D01*
X121069394Y-65229179D01*
X121129737Y-65083497D01*
X121160500Y-64928842D01*
X121160500Y-64771158D01*
X121160500Y-64771155D01*
X121160499Y-64771153D01*
X121129738Y-64616510D01*
X121129737Y-64616503D01*
X121096619Y-64536548D01*
X121089150Y-64467079D01*
X121120425Y-64404600D01*
X121142653Y-64386428D01*
X121142492Y-64386207D01*
X121146378Y-64383382D01*
X121146418Y-64383351D01*
X121146416Y-64383351D01*
X121146434Y-64383343D01*
X121337510Y-64244517D01*
X121535208Y-64046819D01*
X121596531Y-64013334D01*
X121622889Y-64010500D01*
X130154611Y-64010500D01*
X130221650Y-64030185D01*
X130242292Y-64046819D01*
X131303181Y-65107708D01*
X131336666Y-65169031D01*
X131339500Y-65195389D01*
X131339500Y-66772501D01*
X131339501Y-66772518D01*
X131350000Y-66875296D01*
X131350001Y-66875299D01*
X131393425Y-67006342D01*
X131405186Y-67041834D01*
X131497288Y-67191156D01*
X131621344Y-67315212D01*
X131770666Y-67407314D01*
X131937203Y-67462499D01*
X132039991Y-67473000D01*
X134140008Y-67472999D01*
X134242797Y-67462499D01*
X134409334Y-67407314D01*
X134558656Y-67315212D01*
X134682712Y-67191156D01*
X134774814Y-67041834D01*
X134829999Y-66875297D01*
X134840500Y-66772509D01*
X134840499Y-65195387D01*
X134860184Y-65128349D01*
X134876813Y-65107712D01*
X136397708Y-63586819D01*
X136459031Y-63553334D01*
X136485389Y-63550500D01*
X140564717Y-63550500D01*
X140626716Y-63567112D01*
X140724112Y-63623344D01*
X140724117Y-63623346D01*
X140724123Y-63623349D01*
X140815480Y-63661190D01*
X140936113Y-63711158D01*
X141157762Y-63770548D01*
X141385266Y-63800500D01*
X141385273Y-63800500D01*
X141614727Y-63800500D01*
X141614734Y-63800500D01*
X141842238Y-63770548D01*
X142063887Y-63711158D01*
X142275888Y-63623344D01*
X142474612Y-63508611D01*
X142656661Y-63368919D01*
X142656665Y-63368914D01*
X142656670Y-63368911D01*
X142818911Y-63206670D01*
X142818914Y-63206665D01*
X142818919Y-63206661D01*
X142958611Y-63024612D01*
X143073344Y-62825888D01*
X143161158Y-62613887D01*
X143220548Y-62392238D01*
X143250500Y-62164734D01*
X143250500Y-61935266D01*
X143220548Y-61707762D01*
X143161158Y-61486113D01*
X143073344Y-61274112D01*
X142958611Y-61075388D01*
X142958608Y-61075385D01*
X142958607Y-61075382D01*
X142818918Y-60893338D01*
X142818911Y-60893330D01*
X142656670Y-60731089D01*
X142656661Y-60731081D01*
X142474617Y-60591392D01*
X142275890Y-60476657D01*
X142275876Y-60476650D01*
X142063887Y-60388842D01*
X141842238Y-60329452D01*
X141804215Y-60324446D01*
X141614741Y-60299500D01*
X141614734Y-60299500D01*
X141385266Y-60299500D01*
X141385258Y-60299500D01*
X141168715Y-60328009D01*
X141157762Y-60329452D01*
X141064076Y-60354554D01*
X140936112Y-60388842D01*
X140724123Y-60476650D01*
X140724109Y-60476657D01*
X140626717Y-60532887D01*
X140564717Y-60549500D01*
X135694403Y-60549500D01*
X135461130Y-60586447D01*
X135309493Y-60635716D01*
X135309492Y-60635717D01*
X135236507Y-60659432D01*
X135236501Y-60659434D01*
X135026065Y-60766657D01*
X134834988Y-60905484D01*
X133704791Y-62035681D01*
X133643468Y-62069166D01*
X133617110Y-62072000D01*
X132562889Y-62072000D01*
X132495850Y-62052315D01*
X132475208Y-62035681D01*
X131805011Y-61365484D01*
X131679245Y-61274109D01*
X131613934Y-61226657D01*
X131403496Y-61119433D01*
X131178868Y-61046446D01*
X130945597Y-61009500D01*
X130945592Y-61009500D01*
X121068092Y-61009500D01*
X120831908Y-61009500D01*
X120831903Y-61009500D01*
X120598631Y-61046446D01*
X120374003Y-61119433D01*
X120163565Y-61226657D01*
X119972488Y-61365484D01*
X119215484Y-62122488D01*
X119076657Y-62313565D01*
X118969433Y-62524003D01*
X118896446Y-62748631D01*
X118859500Y-62981902D01*
X118859500Y-63218097D01*
X118896446Y-63451368D01*
X118969433Y-63675996D01*
X119076657Y-63886434D01*
X119215483Y-64077510D01*
X119382490Y-64244517D01*
X119573566Y-64383343D01*
X119573575Y-64383347D01*
X119573592Y-64383358D01*
X119573602Y-64383369D01*
X119577508Y-64386207D01*
X119576912Y-64387026D01*
X119620476Y-64435163D01*
X119631909Y-64504090D01*
X119623381Y-64536547D01*
X119590263Y-64616503D01*
X119590261Y-64616510D01*
X119559500Y-64771153D01*
X119559500Y-64928846D01*
X119590261Y-65083489D01*
X119590263Y-65083497D01*
X119603652Y-65115821D01*
X119625044Y-65167468D01*
X119632512Y-65236937D01*
X119601236Y-65299416D01*
X119598163Y-65302600D01*
X118537584Y-66363181D01*
X118476261Y-66396666D01*
X118449903Y-66399500D01*
X114399169Y-66399500D01*
X114399153Y-66399499D01*
X114391557Y-66399499D01*
X114233443Y-66399499D01*
X114126087Y-66428265D01*
X114080710Y-66440424D01*
X114080709Y-66440425D01*
X114030596Y-66469359D01*
X114030595Y-66469360D01*
X113987189Y-66494420D01*
X113943785Y-66519479D01*
X113943782Y-66519481D01*
X113831980Y-66631283D01*
X113831980Y-66631284D01*
X113831978Y-66631286D01*
X113765250Y-66698014D01*
X113703926Y-66731498D01*
X113664967Y-66733690D01*
X113575011Y-66724500D01*
X112849998Y-66724500D01*
X112849980Y-66724501D01*
X112747203Y-66735000D01*
X112747200Y-66735001D01*
X112580668Y-66790185D01*
X112580663Y-66790187D01*
X112431342Y-66882289D01*
X112307289Y-67006342D01*
X112215187Y-67155663D01*
X112215186Y-67155666D01*
X112160001Y-67322203D01*
X112160001Y-67322204D01*
X112160000Y-67322204D01*
X112149500Y-67424983D01*
X111350498Y-67424983D01*
X111343707Y-67358507D01*
X111339999Y-67322203D01*
X111339998Y-67322200D01*
X111337682Y-67315210D01*
X111284814Y-67155666D01*
X111192712Y-67006344D01*
X111068656Y-66882288D01*
X110919334Y-66790186D01*
X110752797Y-66735001D01*
X110752795Y-66735000D01*
X110650010Y-66724500D01*
X109924998Y-66724500D01*
X109924980Y-66724501D01*
X109822203Y-66735000D01*
X109822200Y-66735001D01*
X109655668Y-66790185D01*
X109655663Y-66790187D01*
X109506342Y-66882289D01*
X109382289Y-67006342D01*
X109290187Y-67155663D01*
X109290186Y-67155666D01*
X109235001Y-67322203D01*
X109235001Y-67322204D01*
X109235000Y-67322204D01*
X109224500Y-67424983D01*
X106050500Y-67424983D01*
X106050500Y-65574500D01*
X106070185Y-65507461D01*
X106122989Y-65461706D01*
X106174500Y-65450500D01*
X117133795Y-65450500D01*
X117199096Y-65450666D01*
X117199722Y-65450500D01*
X117200370Y-65450500D01*
X117263106Y-65433689D01*
X117263435Y-65433696D01*
X117263412Y-65433608D01*
X117296820Y-65424747D01*
X117326477Y-65416882D01*
X117326489Y-65416874D01*
X117327207Y-65416580D01*
X117327207Y-65416579D01*
X117327229Y-65416571D01*
X117327656Y-65416394D01*
X117327664Y-65416392D01*
X117384098Y-65383809D01*
X117440772Y-65351281D01*
X117440780Y-65351272D01*
X117441147Y-65350994D01*
X117441147Y-65350993D01*
X117441159Y-65350985D01*
X117441783Y-65350508D01*
X117441789Y-65350501D01*
X117441792Y-65350500D01*
X117487877Y-65304414D01*
X117534195Y-65258332D01*
X117534199Y-65258324D01*
X117534428Y-65258028D01*
X117534561Y-65257855D01*
X117534973Y-65257318D01*
X117534978Y-65257314D01*
X117567586Y-65200834D01*
X117600377Y-65144372D01*
X117600540Y-65143765D01*
X117600853Y-65143225D01*
X117600869Y-65143188D01*
X117617747Y-65080197D01*
X117634809Y-65017165D01*
X117634809Y-65016547D01*
X117634971Y-65015947D01*
X117634978Y-65015895D01*
X117634978Y-64950748D01*
X117635828Y-64616503D01*
X117648913Y-59474183D01*
X117668768Y-59407195D01*
X117721689Y-59361575D01*
X117772913Y-59350500D01*
X118434108Y-59350500D01*
X155675500Y-59350500D01*
X155742539Y-59370185D01*
G37*
%TD.AperFunction*%
%TD*%
M02*
