%TF.GenerationSoftware,KiCad,Pcbnew,9.0.3*%
%TF.CreationDate,2025-07-31T16:26:09+05:30*%
%TF.ProjectId,new_ledMatrix,6e65775f-6c65-4644-9d61-747269782e6b,rev?*%
%TF.SameCoordinates,Original*%
%TF.FileFunction,Legend,Top*%
%TF.FilePolarity,Positive*%
%FSLAX46Y46*%
G04 Gerber Fmt 4.6, Leading zero omitted, Abs format (unit mm)*
G04 Created by KiCad (PCBNEW 9.0.3) date 2025-07-31 16:26:09*
%MOMM*%
%LPD*%
G01*
G04 APERTURE LIST*
%ADD10C,0.150000*%
%ADD11C,0.120000*%
G04 APERTURE END LIST*
D10*
X155815714Y-90284819D02*
X155815714Y-89284819D01*
X155815714Y-89284819D02*
X156053809Y-89284819D01*
X156053809Y-89284819D02*
X156196666Y-89332438D01*
X156196666Y-89332438D02*
X156291904Y-89427676D01*
X156291904Y-89427676D02*
X156339523Y-89522914D01*
X156339523Y-89522914D02*
X156387142Y-89713390D01*
X156387142Y-89713390D02*
X156387142Y-89856247D01*
X156387142Y-89856247D02*
X156339523Y-90046723D01*
X156339523Y-90046723D02*
X156291904Y-90141961D01*
X156291904Y-90141961D02*
X156196666Y-90237200D01*
X156196666Y-90237200D02*
X156053809Y-90284819D01*
X156053809Y-90284819D02*
X155815714Y-90284819D01*
X157244285Y-89618152D02*
X157244285Y-90284819D01*
X157006190Y-89237200D02*
X156768095Y-89951485D01*
X156768095Y-89951485D02*
X157387142Y-89951485D01*
X157815714Y-90284819D02*
X158006190Y-90284819D01*
X158006190Y-90284819D02*
X158101428Y-90237200D01*
X158101428Y-90237200D02*
X158149047Y-90189580D01*
X158149047Y-90189580D02*
X158244285Y-90046723D01*
X158244285Y-90046723D02*
X158291904Y-89856247D01*
X158291904Y-89856247D02*
X158291904Y-89475295D01*
X158291904Y-89475295D02*
X158244285Y-89380057D01*
X158244285Y-89380057D02*
X158196666Y-89332438D01*
X158196666Y-89332438D02*
X158101428Y-89284819D01*
X158101428Y-89284819D02*
X157910952Y-89284819D01*
X157910952Y-89284819D02*
X157815714Y-89332438D01*
X157815714Y-89332438D02*
X157768095Y-89380057D01*
X157768095Y-89380057D02*
X157720476Y-89475295D01*
X157720476Y-89475295D02*
X157720476Y-89713390D01*
X157720476Y-89713390D02*
X157768095Y-89808628D01*
X157768095Y-89808628D02*
X157815714Y-89856247D01*
X157815714Y-89856247D02*
X157910952Y-89903866D01*
X157910952Y-89903866D02*
X158101428Y-89903866D01*
X158101428Y-89903866D02*
X158196666Y-89856247D01*
X158196666Y-89856247D02*
X158244285Y-89808628D01*
X158244285Y-89808628D02*
X158291904Y-89713390D01*
X121371905Y-67514819D02*
X121371905Y-66514819D01*
X121371905Y-66514819D02*
X121610000Y-66514819D01*
X121610000Y-66514819D02*
X121752857Y-66562438D01*
X121752857Y-66562438D02*
X121848095Y-66657676D01*
X121848095Y-66657676D02*
X121895714Y-66752914D01*
X121895714Y-66752914D02*
X121943333Y-66943390D01*
X121943333Y-66943390D02*
X121943333Y-67086247D01*
X121943333Y-67086247D02*
X121895714Y-67276723D01*
X121895714Y-67276723D02*
X121848095Y-67371961D01*
X121848095Y-67371961D02*
X121752857Y-67467200D01*
X121752857Y-67467200D02*
X121610000Y-67514819D01*
X121610000Y-67514819D02*
X121371905Y-67514819D01*
X122895714Y-67514819D02*
X122324286Y-67514819D01*
X122610000Y-67514819D02*
X122610000Y-66514819D01*
X122610000Y-66514819D02*
X122514762Y-66657676D01*
X122514762Y-66657676D02*
X122419524Y-66752914D01*
X122419524Y-66752914D02*
X122324286Y-66800533D01*
X125081428Y-64487704D02*
X125538571Y-64487704D01*
X125309999Y-64487704D02*
X125309999Y-65287704D01*
X125309999Y-65287704D02*
X125386190Y-65173419D01*
X125386190Y-65173419D02*
X125462380Y-65097228D01*
X125462380Y-65097228D02*
X125538571Y-65059133D01*
X133061905Y-67484819D02*
X133061905Y-66484819D01*
X133061905Y-66484819D02*
X133300000Y-66484819D01*
X133300000Y-66484819D02*
X133442857Y-66532438D01*
X133442857Y-66532438D02*
X133538095Y-66627676D01*
X133538095Y-66627676D02*
X133585714Y-66722914D01*
X133585714Y-66722914D02*
X133633333Y-66913390D01*
X133633333Y-66913390D02*
X133633333Y-67056247D01*
X133633333Y-67056247D02*
X133585714Y-67246723D01*
X133585714Y-67246723D02*
X133538095Y-67341961D01*
X133538095Y-67341961D02*
X133442857Y-67437200D01*
X133442857Y-67437200D02*
X133300000Y-67484819D01*
X133300000Y-67484819D02*
X133061905Y-67484819D01*
X133966667Y-66484819D02*
X134585714Y-66484819D01*
X134585714Y-66484819D02*
X134252381Y-66865771D01*
X134252381Y-66865771D02*
X134395238Y-66865771D01*
X134395238Y-66865771D02*
X134490476Y-66913390D01*
X134490476Y-66913390D02*
X134538095Y-66961009D01*
X134538095Y-66961009D02*
X134585714Y-67056247D01*
X134585714Y-67056247D02*
X134585714Y-67294342D01*
X134585714Y-67294342D02*
X134538095Y-67389580D01*
X134538095Y-67389580D02*
X134490476Y-67437200D01*
X134490476Y-67437200D02*
X134395238Y-67484819D01*
X134395238Y-67484819D02*
X134109524Y-67484819D01*
X134109524Y-67484819D02*
X134014286Y-67437200D01*
X134014286Y-67437200D02*
X133966667Y-67389580D01*
X150045714Y-96204819D02*
X150045714Y-95204819D01*
X150045714Y-95204819D02*
X150283809Y-95204819D01*
X150283809Y-95204819D02*
X150426666Y-95252438D01*
X150426666Y-95252438D02*
X150521904Y-95347676D01*
X150521904Y-95347676D02*
X150569523Y-95442914D01*
X150569523Y-95442914D02*
X150617142Y-95633390D01*
X150617142Y-95633390D02*
X150617142Y-95776247D01*
X150617142Y-95776247D02*
X150569523Y-95966723D01*
X150569523Y-95966723D02*
X150521904Y-96061961D01*
X150521904Y-96061961D02*
X150426666Y-96157200D01*
X150426666Y-96157200D02*
X150283809Y-96204819D01*
X150283809Y-96204819D02*
X150045714Y-96204819D01*
X151521904Y-95204819D02*
X151045714Y-95204819D01*
X151045714Y-95204819D02*
X150998095Y-95681009D01*
X150998095Y-95681009D02*
X151045714Y-95633390D01*
X151045714Y-95633390D02*
X151140952Y-95585771D01*
X151140952Y-95585771D02*
X151379047Y-95585771D01*
X151379047Y-95585771D02*
X151474285Y-95633390D01*
X151474285Y-95633390D02*
X151521904Y-95681009D01*
X151521904Y-95681009D02*
X151569523Y-95776247D01*
X151569523Y-95776247D02*
X151569523Y-96014342D01*
X151569523Y-96014342D02*
X151521904Y-96109580D01*
X151521904Y-96109580D02*
X151474285Y-96157200D01*
X151474285Y-96157200D02*
X151379047Y-96204819D01*
X151379047Y-96204819D02*
X151140952Y-96204819D01*
X151140952Y-96204819D02*
X151045714Y-96157200D01*
X151045714Y-96157200D02*
X150998095Y-96109580D01*
X152521904Y-96204819D02*
X151950476Y-96204819D01*
X152236190Y-96204819D02*
X152236190Y-95204819D01*
X152236190Y-95204819D02*
X152140952Y-95347676D01*
X152140952Y-95347676D02*
X152045714Y-95442914D01*
X152045714Y-95442914D02*
X151950476Y-95490533D01*
X149905714Y-78914819D02*
X149905714Y-77914819D01*
X149905714Y-77914819D02*
X150143809Y-77914819D01*
X150143809Y-77914819D02*
X150286666Y-77962438D01*
X150286666Y-77962438D02*
X150381904Y-78057676D01*
X150381904Y-78057676D02*
X150429523Y-78152914D01*
X150429523Y-78152914D02*
X150477142Y-78343390D01*
X150477142Y-78343390D02*
X150477142Y-78486247D01*
X150477142Y-78486247D02*
X150429523Y-78676723D01*
X150429523Y-78676723D02*
X150381904Y-78771961D01*
X150381904Y-78771961D02*
X150286666Y-78867200D01*
X150286666Y-78867200D02*
X150143809Y-78914819D01*
X150143809Y-78914819D02*
X149905714Y-78914819D01*
X150858095Y-78010057D02*
X150905714Y-77962438D01*
X150905714Y-77962438D02*
X151000952Y-77914819D01*
X151000952Y-77914819D02*
X151239047Y-77914819D01*
X151239047Y-77914819D02*
X151334285Y-77962438D01*
X151334285Y-77962438D02*
X151381904Y-78010057D01*
X151381904Y-78010057D02*
X151429523Y-78105295D01*
X151429523Y-78105295D02*
X151429523Y-78200533D01*
X151429523Y-78200533D02*
X151381904Y-78343390D01*
X151381904Y-78343390D02*
X150810476Y-78914819D01*
X150810476Y-78914819D02*
X151429523Y-78914819D01*
X152334285Y-77914819D02*
X151858095Y-77914819D01*
X151858095Y-77914819D02*
X151810476Y-78391009D01*
X151810476Y-78391009D02*
X151858095Y-78343390D01*
X151858095Y-78343390D02*
X151953333Y-78295771D01*
X151953333Y-78295771D02*
X152191428Y-78295771D01*
X152191428Y-78295771D02*
X152286666Y-78343390D01*
X152286666Y-78343390D02*
X152334285Y-78391009D01*
X152334285Y-78391009D02*
X152381904Y-78486247D01*
X152381904Y-78486247D02*
X152381904Y-78724342D01*
X152381904Y-78724342D02*
X152334285Y-78819580D01*
X152334285Y-78819580D02*
X152286666Y-78867200D01*
X152286666Y-78867200D02*
X152191428Y-78914819D01*
X152191428Y-78914819D02*
X151953333Y-78914819D01*
X151953333Y-78914819D02*
X151858095Y-78867200D01*
X151858095Y-78867200D02*
X151810476Y-78819580D01*
X115115714Y-78994819D02*
X115115714Y-77994819D01*
X115115714Y-77994819D02*
X115353809Y-77994819D01*
X115353809Y-77994819D02*
X115496666Y-78042438D01*
X115496666Y-78042438D02*
X115591904Y-78137676D01*
X115591904Y-78137676D02*
X115639523Y-78232914D01*
X115639523Y-78232914D02*
X115687142Y-78423390D01*
X115687142Y-78423390D02*
X115687142Y-78566247D01*
X115687142Y-78566247D02*
X115639523Y-78756723D01*
X115639523Y-78756723D02*
X115591904Y-78851961D01*
X115591904Y-78851961D02*
X115496666Y-78947200D01*
X115496666Y-78947200D02*
X115353809Y-78994819D01*
X115353809Y-78994819D02*
X115115714Y-78994819D01*
X116639523Y-78994819D02*
X116068095Y-78994819D01*
X116353809Y-78994819D02*
X116353809Y-77994819D01*
X116353809Y-77994819D02*
X116258571Y-78137676D01*
X116258571Y-78137676D02*
X116163333Y-78232914D01*
X116163333Y-78232914D02*
X116068095Y-78280533D01*
X117115714Y-78994819D02*
X117306190Y-78994819D01*
X117306190Y-78994819D02*
X117401428Y-78947200D01*
X117401428Y-78947200D02*
X117449047Y-78899580D01*
X117449047Y-78899580D02*
X117544285Y-78756723D01*
X117544285Y-78756723D02*
X117591904Y-78566247D01*
X117591904Y-78566247D02*
X117591904Y-78185295D01*
X117591904Y-78185295D02*
X117544285Y-78090057D01*
X117544285Y-78090057D02*
X117496666Y-78042438D01*
X117496666Y-78042438D02*
X117401428Y-77994819D01*
X117401428Y-77994819D02*
X117210952Y-77994819D01*
X117210952Y-77994819D02*
X117115714Y-78042438D01*
X117115714Y-78042438D02*
X117068095Y-78090057D01*
X117068095Y-78090057D02*
X117020476Y-78185295D01*
X117020476Y-78185295D02*
X117020476Y-78423390D01*
X117020476Y-78423390D02*
X117068095Y-78518628D01*
X117068095Y-78518628D02*
X117115714Y-78566247D01*
X117115714Y-78566247D02*
X117210952Y-78613866D01*
X117210952Y-78613866D02*
X117401428Y-78613866D01*
X117401428Y-78613866D02*
X117496666Y-78566247D01*
X117496666Y-78566247D02*
X117544285Y-78518628D01*
X117544285Y-78518628D02*
X117591904Y-78423390D01*
X155735714Y-78954819D02*
X155735714Y-77954819D01*
X155735714Y-77954819D02*
X155973809Y-77954819D01*
X155973809Y-77954819D02*
X156116666Y-78002438D01*
X156116666Y-78002438D02*
X156211904Y-78097676D01*
X156211904Y-78097676D02*
X156259523Y-78192914D01*
X156259523Y-78192914D02*
X156307142Y-78383390D01*
X156307142Y-78383390D02*
X156307142Y-78526247D01*
X156307142Y-78526247D02*
X156259523Y-78716723D01*
X156259523Y-78716723D02*
X156211904Y-78811961D01*
X156211904Y-78811961D02*
X156116666Y-78907200D01*
X156116666Y-78907200D02*
X155973809Y-78954819D01*
X155973809Y-78954819D02*
X155735714Y-78954819D01*
X156688095Y-78050057D02*
X156735714Y-78002438D01*
X156735714Y-78002438D02*
X156830952Y-77954819D01*
X156830952Y-77954819D02*
X157069047Y-77954819D01*
X157069047Y-77954819D02*
X157164285Y-78002438D01*
X157164285Y-78002438D02*
X157211904Y-78050057D01*
X157211904Y-78050057D02*
X157259523Y-78145295D01*
X157259523Y-78145295D02*
X157259523Y-78240533D01*
X157259523Y-78240533D02*
X157211904Y-78383390D01*
X157211904Y-78383390D02*
X156640476Y-78954819D01*
X156640476Y-78954819D02*
X157259523Y-78954819D01*
X158116666Y-77954819D02*
X157926190Y-77954819D01*
X157926190Y-77954819D02*
X157830952Y-78002438D01*
X157830952Y-78002438D02*
X157783333Y-78050057D01*
X157783333Y-78050057D02*
X157688095Y-78192914D01*
X157688095Y-78192914D02*
X157640476Y-78383390D01*
X157640476Y-78383390D02*
X157640476Y-78764342D01*
X157640476Y-78764342D02*
X157688095Y-78859580D01*
X157688095Y-78859580D02*
X157735714Y-78907200D01*
X157735714Y-78907200D02*
X157830952Y-78954819D01*
X157830952Y-78954819D02*
X158021428Y-78954819D01*
X158021428Y-78954819D02*
X158116666Y-78907200D01*
X158116666Y-78907200D02*
X158164285Y-78859580D01*
X158164285Y-78859580D02*
X158211904Y-78764342D01*
X158211904Y-78764342D02*
X158211904Y-78526247D01*
X158211904Y-78526247D02*
X158164285Y-78431009D01*
X158164285Y-78431009D02*
X158116666Y-78383390D01*
X158116666Y-78383390D02*
X158021428Y-78335771D01*
X158021428Y-78335771D02*
X157830952Y-78335771D01*
X157830952Y-78335771D02*
X157735714Y-78383390D01*
X157735714Y-78383390D02*
X157688095Y-78431009D01*
X157688095Y-78431009D02*
X157640476Y-78526247D01*
X126615714Y-78944819D02*
X126615714Y-77944819D01*
X126615714Y-77944819D02*
X126853809Y-77944819D01*
X126853809Y-77944819D02*
X126996666Y-77992438D01*
X126996666Y-77992438D02*
X127091904Y-78087676D01*
X127091904Y-78087676D02*
X127139523Y-78182914D01*
X127139523Y-78182914D02*
X127187142Y-78373390D01*
X127187142Y-78373390D02*
X127187142Y-78516247D01*
X127187142Y-78516247D02*
X127139523Y-78706723D01*
X127139523Y-78706723D02*
X127091904Y-78801961D01*
X127091904Y-78801961D02*
X126996666Y-78897200D01*
X126996666Y-78897200D02*
X126853809Y-78944819D01*
X126853809Y-78944819D02*
X126615714Y-78944819D01*
X127568095Y-78040057D02*
X127615714Y-77992438D01*
X127615714Y-77992438D02*
X127710952Y-77944819D01*
X127710952Y-77944819D02*
X127949047Y-77944819D01*
X127949047Y-77944819D02*
X128044285Y-77992438D01*
X128044285Y-77992438D02*
X128091904Y-78040057D01*
X128091904Y-78040057D02*
X128139523Y-78135295D01*
X128139523Y-78135295D02*
X128139523Y-78230533D01*
X128139523Y-78230533D02*
X128091904Y-78373390D01*
X128091904Y-78373390D02*
X127520476Y-78944819D01*
X127520476Y-78944819D02*
X128139523Y-78944819D01*
X129091904Y-78944819D02*
X128520476Y-78944819D01*
X128806190Y-78944819D02*
X128806190Y-77944819D01*
X128806190Y-77944819D02*
X128710952Y-78087676D01*
X128710952Y-78087676D02*
X128615714Y-78182914D01*
X128615714Y-78182914D02*
X128520476Y-78230533D01*
X126675714Y-96184819D02*
X126675714Y-95184819D01*
X126675714Y-95184819D02*
X126913809Y-95184819D01*
X126913809Y-95184819D02*
X127056666Y-95232438D01*
X127056666Y-95232438D02*
X127151904Y-95327676D01*
X127151904Y-95327676D02*
X127199523Y-95422914D01*
X127199523Y-95422914D02*
X127247142Y-95613390D01*
X127247142Y-95613390D02*
X127247142Y-95756247D01*
X127247142Y-95756247D02*
X127199523Y-95946723D01*
X127199523Y-95946723D02*
X127151904Y-96041961D01*
X127151904Y-96041961D02*
X127056666Y-96137200D01*
X127056666Y-96137200D02*
X126913809Y-96184819D01*
X126913809Y-96184819D02*
X126675714Y-96184819D01*
X128151904Y-95184819D02*
X127675714Y-95184819D01*
X127675714Y-95184819D02*
X127628095Y-95661009D01*
X127628095Y-95661009D02*
X127675714Y-95613390D01*
X127675714Y-95613390D02*
X127770952Y-95565771D01*
X127770952Y-95565771D02*
X128009047Y-95565771D01*
X128009047Y-95565771D02*
X128104285Y-95613390D01*
X128104285Y-95613390D02*
X128151904Y-95661009D01*
X128151904Y-95661009D02*
X128199523Y-95756247D01*
X128199523Y-95756247D02*
X128199523Y-95994342D01*
X128199523Y-95994342D02*
X128151904Y-96089580D01*
X128151904Y-96089580D02*
X128104285Y-96137200D01*
X128104285Y-96137200D02*
X128009047Y-96184819D01*
X128009047Y-96184819D02*
X127770952Y-96184819D01*
X127770952Y-96184819D02*
X127675714Y-96137200D01*
X127675714Y-96137200D02*
X127628095Y-96089580D01*
X129104285Y-95184819D02*
X128628095Y-95184819D01*
X128628095Y-95184819D02*
X128580476Y-95661009D01*
X128580476Y-95661009D02*
X128628095Y-95613390D01*
X128628095Y-95613390D02*
X128723333Y-95565771D01*
X128723333Y-95565771D02*
X128961428Y-95565771D01*
X128961428Y-95565771D02*
X129056666Y-95613390D01*
X129056666Y-95613390D02*
X129104285Y-95661009D01*
X129104285Y-95661009D02*
X129151904Y-95756247D01*
X129151904Y-95756247D02*
X129151904Y-95994342D01*
X129151904Y-95994342D02*
X129104285Y-96089580D01*
X129104285Y-96089580D02*
X129056666Y-96137200D01*
X129056666Y-96137200D02*
X128961428Y-96184819D01*
X128961428Y-96184819D02*
X128723333Y-96184819D01*
X128723333Y-96184819D02*
X128628095Y-96137200D01*
X128628095Y-96137200D02*
X128580476Y-96089580D01*
X120855714Y-96174819D02*
X120855714Y-95174819D01*
X120855714Y-95174819D02*
X121093809Y-95174819D01*
X121093809Y-95174819D02*
X121236666Y-95222438D01*
X121236666Y-95222438D02*
X121331904Y-95317676D01*
X121331904Y-95317676D02*
X121379523Y-95412914D01*
X121379523Y-95412914D02*
X121427142Y-95603390D01*
X121427142Y-95603390D02*
X121427142Y-95746247D01*
X121427142Y-95746247D02*
X121379523Y-95936723D01*
X121379523Y-95936723D02*
X121331904Y-96031961D01*
X121331904Y-96031961D02*
X121236666Y-96127200D01*
X121236666Y-96127200D02*
X121093809Y-96174819D01*
X121093809Y-96174819D02*
X120855714Y-96174819D01*
X122331904Y-95174819D02*
X121855714Y-95174819D01*
X121855714Y-95174819D02*
X121808095Y-95651009D01*
X121808095Y-95651009D02*
X121855714Y-95603390D01*
X121855714Y-95603390D02*
X121950952Y-95555771D01*
X121950952Y-95555771D02*
X122189047Y-95555771D01*
X122189047Y-95555771D02*
X122284285Y-95603390D01*
X122284285Y-95603390D02*
X122331904Y-95651009D01*
X122331904Y-95651009D02*
X122379523Y-95746247D01*
X122379523Y-95746247D02*
X122379523Y-95984342D01*
X122379523Y-95984342D02*
X122331904Y-96079580D01*
X122331904Y-96079580D02*
X122284285Y-96127200D01*
X122284285Y-96127200D02*
X122189047Y-96174819D01*
X122189047Y-96174819D02*
X121950952Y-96174819D01*
X121950952Y-96174819D02*
X121855714Y-96127200D01*
X121855714Y-96127200D02*
X121808095Y-96079580D01*
X123236666Y-95174819D02*
X123046190Y-95174819D01*
X123046190Y-95174819D02*
X122950952Y-95222438D01*
X122950952Y-95222438D02*
X122903333Y-95270057D01*
X122903333Y-95270057D02*
X122808095Y-95412914D01*
X122808095Y-95412914D02*
X122760476Y-95603390D01*
X122760476Y-95603390D02*
X122760476Y-95984342D01*
X122760476Y-95984342D02*
X122808095Y-96079580D01*
X122808095Y-96079580D02*
X122855714Y-96127200D01*
X122855714Y-96127200D02*
X122950952Y-96174819D01*
X122950952Y-96174819D02*
X123141428Y-96174819D01*
X123141428Y-96174819D02*
X123236666Y-96127200D01*
X123236666Y-96127200D02*
X123284285Y-96079580D01*
X123284285Y-96079580D02*
X123331904Y-95984342D01*
X123331904Y-95984342D02*
X123331904Y-95746247D01*
X123331904Y-95746247D02*
X123284285Y-95651009D01*
X123284285Y-95651009D02*
X123236666Y-95603390D01*
X123236666Y-95603390D02*
X123141428Y-95555771D01*
X123141428Y-95555771D02*
X122950952Y-95555771D01*
X122950952Y-95555771D02*
X122855714Y-95603390D01*
X122855714Y-95603390D02*
X122808095Y-95651009D01*
X122808095Y-95651009D02*
X122760476Y-95746247D01*
X119098571Y-92277295D02*
X118641428Y-92277295D01*
X118870000Y-92277295D02*
X118870000Y-91477295D01*
X118870000Y-91477295D02*
X118793809Y-91591580D01*
X118793809Y-91591580D02*
X118717619Y-91667771D01*
X118717619Y-91667771D02*
X118641428Y-91705866D01*
X103665714Y-73244819D02*
X103665714Y-72244819D01*
X103665714Y-72244819D02*
X103903809Y-72244819D01*
X103903809Y-72244819D02*
X104046666Y-72292438D01*
X104046666Y-72292438D02*
X104141904Y-72387676D01*
X104141904Y-72387676D02*
X104189523Y-72482914D01*
X104189523Y-72482914D02*
X104237142Y-72673390D01*
X104237142Y-72673390D02*
X104237142Y-72816247D01*
X104237142Y-72816247D02*
X104189523Y-73006723D01*
X104189523Y-73006723D02*
X104141904Y-73101961D01*
X104141904Y-73101961D02*
X104046666Y-73197200D01*
X104046666Y-73197200D02*
X103903809Y-73244819D01*
X103903809Y-73244819D02*
X103665714Y-73244819D01*
X105189523Y-73244819D02*
X104618095Y-73244819D01*
X104903809Y-73244819D02*
X104903809Y-72244819D01*
X104903809Y-72244819D02*
X104808571Y-72387676D01*
X104808571Y-72387676D02*
X104713333Y-72482914D01*
X104713333Y-72482914D02*
X104618095Y-72530533D01*
X105522857Y-72244819D02*
X106189523Y-72244819D01*
X106189523Y-72244819D02*
X105760952Y-73244819D01*
X132505714Y-96174819D02*
X132505714Y-95174819D01*
X132505714Y-95174819D02*
X132743809Y-95174819D01*
X132743809Y-95174819D02*
X132886666Y-95222438D01*
X132886666Y-95222438D02*
X132981904Y-95317676D01*
X132981904Y-95317676D02*
X133029523Y-95412914D01*
X133029523Y-95412914D02*
X133077142Y-95603390D01*
X133077142Y-95603390D02*
X133077142Y-95746247D01*
X133077142Y-95746247D02*
X133029523Y-95936723D01*
X133029523Y-95936723D02*
X132981904Y-96031961D01*
X132981904Y-96031961D02*
X132886666Y-96127200D01*
X132886666Y-96127200D02*
X132743809Y-96174819D01*
X132743809Y-96174819D02*
X132505714Y-96174819D01*
X133981904Y-95174819D02*
X133505714Y-95174819D01*
X133505714Y-95174819D02*
X133458095Y-95651009D01*
X133458095Y-95651009D02*
X133505714Y-95603390D01*
X133505714Y-95603390D02*
X133600952Y-95555771D01*
X133600952Y-95555771D02*
X133839047Y-95555771D01*
X133839047Y-95555771D02*
X133934285Y-95603390D01*
X133934285Y-95603390D02*
X133981904Y-95651009D01*
X133981904Y-95651009D02*
X134029523Y-95746247D01*
X134029523Y-95746247D02*
X134029523Y-95984342D01*
X134029523Y-95984342D02*
X133981904Y-96079580D01*
X133981904Y-96079580D02*
X133934285Y-96127200D01*
X133934285Y-96127200D02*
X133839047Y-96174819D01*
X133839047Y-96174819D02*
X133600952Y-96174819D01*
X133600952Y-96174819D02*
X133505714Y-96127200D01*
X133505714Y-96127200D02*
X133458095Y-96079580D01*
X134886666Y-95508152D02*
X134886666Y-96174819D01*
X134648571Y-95127200D02*
X134410476Y-95841485D01*
X134410476Y-95841485D02*
X135029523Y-95841485D01*
X127241905Y-67514819D02*
X127241905Y-66514819D01*
X127241905Y-66514819D02*
X127480000Y-66514819D01*
X127480000Y-66514819D02*
X127622857Y-66562438D01*
X127622857Y-66562438D02*
X127718095Y-66657676D01*
X127718095Y-66657676D02*
X127765714Y-66752914D01*
X127765714Y-66752914D02*
X127813333Y-66943390D01*
X127813333Y-66943390D02*
X127813333Y-67086247D01*
X127813333Y-67086247D02*
X127765714Y-67276723D01*
X127765714Y-67276723D02*
X127718095Y-67371961D01*
X127718095Y-67371961D02*
X127622857Y-67467200D01*
X127622857Y-67467200D02*
X127480000Y-67514819D01*
X127480000Y-67514819D02*
X127241905Y-67514819D01*
X128194286Y-66610057D02*
X128241905Y-66562438D01*
X128241905Y-66562438D02*
X128337143Y-66514819D01*
X128337143Y-66514819D02*
X128575238Y-66514819D01*
X128575238Y-66514819D02*
X128670476Y-66562438D01*
X128670476Y-66562438D02*
X128718095Y-66610057D01*
X128718095Y-66610057D02*
X128765714Y-66705295D01*
X128765714Y-66705295D02*
X128765714Y-66800533D01*
X128765714Y-66800533D02*
X128718095Y-66943390D01*
X128718095Y-66943390D02*
X128146667Y-67514819D01*
X128146667Y-67514819D02*
X128765714Y-67514819D01*
X138305714Y-78954819D02*
X138305714Y-77954819D01*
X138305714Y-77954819D02*
X138543809Y-77954819D01*
X138543809Y-77954819D02*
X138686666Y-78002438D01*
X138686666Y-78002438D02*
X138781904Y-78097676D01*
X138781904Y-78097676D02*
X138829523Y-78192914D01*
X138829523Y-78192914D02*
X138877142Y-78383390D01*
X138877142Y-78383390D02*
X138877142Y-78526247D01*
X138877142Y-78526247D02*
X138829523Y-78716723D01*
X138829523Y-78716723D02*
X138781904Y-78811961D01*
X138781904Y-78811961D02*
X138686666Y-78907200D01*
X138686666Y-78907200D02*
X138543809Y-78954819D01*
X138543809Y-78954819D02*
X138305714Y-78954819D01*
X139258095Y-78050057D02*
X139305714Y-78002438D01*
X139305714Y-78002438D02*
X139400952Y-77954819D01*
X139400952Y-77954819D02*
X139639047Y-77954819D01*
X139639047Y-77954819D02*
X139734285Y-78002438D01*
X139734285Y-78002438D02*
X139781904Y-78050057D01*
X139781904Y-78050057D02*
X139829523Y-78145295D01*
X139829523Y-78145295D02*
X139829523Y-78240533D01*
X139829523Y-78240533D02*
X139781904Y-78383390D01*
X139781904Y-78383390D02*
X139210476Y-78954819D01*
X139210476Y-78954819D02*
X139829523Y-78954819D01*
X140162857Y-77954819D02*
X140781904Y-77954819D01*
X140781904Y-77954819D02*
X140448571Y-78335771D01*
X140448571Y-78335771D02*
X140591428Y-78335771D01*
X140591428Y-78335771D02*
X140686666Y-78383390D01*
X140686666Y-78383390D02*
X140734285Y-78431009D01*
X140734285Y-78431009D02*
X140781904Y-78526247D01*
X140781904Y-78526247D02*
X140781904Y-78764342D01*
X140781904Y-78764342D02*
X140734285Y-78859580D01*
X140734285Y-78859580D02*
X140686666Y-78907200D01*
X140686666Y-78907200D02*
X140591428Y-78954819D01*
X140591428Y-78954819D02*
X140305714Y-78954819D01*
X140305714Y-78954819D02*
X140210476Y-78907200D01*
X140210476Y-78907200D02*
X140162857Y-78859580D01*
X162051905Y-73214819D02*
X162051905Y-72214819D01*
X162051905Y-72214819D02*
X162290000Y-72214819D01*
X162290000Y-72214819D02*
X162432857Y-72262438D01*
X162432857Y-72262438D02*
X162528095Y-72357676D01*
X162528095Y-72357676D02*
X162575714Y-72452914D01*
X162575714Y-72452914D02*
X162623333Y-72643390D01*
X162623333Y-72643390D02*
X162623333Y-72786247D01*
X162623333Y-72786247D02*
X162575714Y-72976723D01*
X162575714Y-72976723D02*
X162528095Y-73071961D01*
X162528095Y-73071961D02*
X162432857Y-73167200D01*
X162432857Y-73167200D02*
X162290000Y-73214819D01*
X162290000Y-73214819D02*
X162051905Y-73214819D01*
X162956667Y-72214819D02*
X163623333Y-72214819D01*
X163623333Y-72214819D02*
X163194762Y-73214819D01*
X159818571Y-69317295D02*
X159361428Y-69317295D01*
X159590000Y-69317295D02*
X159590000Y-68517295D01*
X159590000Y-68517295D02*
X159513809Y-68631580D01*
X159513809Y-68631580D02*
X159437619Y-68707771D01*
X159437619Y-68707771D02*
X159361428Y-68745866D01*
X132545714Y-84684819D02*
X132545714Y-83684819D01*
X132545714Y-83684819D02*
X132783809Y-83684819D01*
X132783809Y-83684819D02*
X132926666Y-83732438D01*
X132926666Y-83732438D02*
X133021904Y-83827676D01*
X133021904Y-83827676D02*
X133069523Y-83922914D01*
X133069523Y-83922914D02*
X133117142Y-84113390D01*
X133117142Y-84113390D02*
X133117142Y-84256247D01*
X133117142Y-84256247D02*
X133069523Y-84446723D01*
X133069523Y-84446723D02*
X133021904Y-84541961D01*
X133021904Y-84541961D02*
X132926666Y-84637200D01*
X132926666Y-84637200D02*
X132783809Y-84684819D01*
X132783809Y-84684819D02*
X132545714Y-84684819D01*
X133450476Y-83684819D02*
X134069523Y-83684819D01*
X134069523Y-83684819D02*
X133736190Y-84065771D01*
X133736190Y-84065771D02*
X133879047Y-84065771D01*
X133879047Y-84065771D02*
X133974285Y-84113390D01*
X133974285Y-84113390D02*
X134021904Y-84161009D01*
X134021904Y-84161009D02*
X134069523Y-84256247D01*
X134069523Y-84256247D02*
X134069523Y-84494342D01*
X134069523Y-84494342D02*
X134021904Y-84589580D01*
X134021904Y-84589580D02*
X133974285Y-84637200D01*
X133974285Y-84637200D02*
X133879047Y-84684819D01*
X133879047Y-84684819D02*
X133593333Y-84684819D01*
X133593333Y-84684819D02*
X133498095Y-84637200D01*
X133498095Y-84637200D02*
X133450476Y-84589580D01*
X134974285Y-83684819D02*
X134498095Y-83684819D01*
X134498095Y-83684819D02*
X134450476Y-84161009D01*
X134450476Y-84161009D02*
X134498095Y-84113390D01*
X134498095Y-84113390D02*
X134593333Y-84065771D01*
X134593333Y-84065771D02*
X134831428Y-84065771D01*
X134831428Y-84065771D02*
X134926666Y-84113390D01*
X134926666Y-84113390D02*
X134974285Y-84161009D01*
X134974285Y-84161009D02*
X135021904Y-84256247D01*
X135021904Y-84256247D02*
X135021904Y-84494342D01*
X135021904Y-84494342D02*
X134974285Y-84589580D01*
X134974285Y-84589580D02*
X134926666Y-84637200D01*
X134926666Y-84637200D02*
X134831428Y-84684819D01*
X134831428Y-84684819D02*
X134593333Y-84684819D01*
X134593333Y-84684819D02*
X134498095Y-84637200D01*
X134498095Y-84637200D02*
X134450476Y-84589580D01*
X126725714Y-73224819D02*
X126725714Y-72224819D01*
X126725714Y-72224819D02*
X126963809Y-72224819D01*
X126963809Y-72224819D02*
X127106666Y-72272438D01*
X127106666Y-72272438D02*
X127201904Y-72367676D01*
X127201904Y-72367676D02*
X127249523Y-72462914D01*
X127249523Y-72462914D02*
X127297142Y-72653390D01*
X127297142Y-72653390D02*
X127297142Y-72796247D01*
X127297142Y-72796247D02*
X127249523Y-72986723D01*
X127249523Y-72986723D02*
X127201904Y-73081961D01*
X127201904Y-73081961D02*
X127106666Y-73177200D01*
X127106666Y-73177200D02*
X126963809Y-73224819D01*
X126963809Y-73224819D02*
X126725714Y-73224819D01*
X128249523Y-73224819D02*
X127678095Y-73224819D01*
X127963809Y-73224819D02*
X127963809Y-72224819D01*
X127963809Y-72224819D02*
X127868571Y-72367676D01*
X127868571Y-72367676D02*
X127773333Y-72462914D01*
X127773333Y-72462914D02*
X127678095Y-72510533D01*
X128582857Y-72224819D02*
X129201904Y-72224819D01*
X129201904Y-72224819D02*
X128868571Y-72605771D01*
X128868571Y-72605771D02*
X129011428Y-72605771D01*
X129011428Y-72605771D02*
X129106666Y-72653390D01*
X129106666Y-72653390D02*
X129154285Y-72701009D01*
X129154285Y-72701009D02*
X129201904Y-72796247D01*
X129201904Y-72796247D02*
X129201904Y-73034342D01*
X129201904Y-73034342D02*
X129154285Y-73129580D01*
X129154285Y-73129580D02*
X129106666Y-73177200D01*
X129106666Y-73177200D02*
X129011428Y-73224819D01*
X129011428Y-73224819D02*
X128725714Y-73224819D01*
X128725714Y-73224819D02*
X128630476Y-73177200D01*
X128630476Y-73177200D02*
X128582857Y-73129580D01*
X161605714Y-90274819D02*
X161605714Y-89274819D01*
X161605714Y-89274819D02*
X161843809Y-89274819D01*
X161843809Y-89274819D02*
X161986666Y-89322438D01*
X161986666Y-89322438D02*
X162081904Y-89417676D01*
X162081904Y-89417676D02*
X162129523Y-89512914D01*
X162129523Y-89512914D02*
X162177142Y-89703390D01*
X162177142Y-89703390D02*
X162177142Y-89846247D01*
X162177142Y-89846247D02*
X162129523Y-90036723D01*
X162129523Y-90036723D02*
X162081904Y-90131961D01*
X162081904Y-90131961D02*
X161986666Y-90227200D01*
X161986666Y-90227200D02*
X161843809Y-90274819D01*
X161843809Y-90274819D02*
X161605714Y-90274819D01*
X163081904Y-89274819D02*
X162605714Y-89274819D01*
X162605714Y-89274819D02*
X162558095Y-89751009D01*
X162558095Y-89751009D02*
X162605714Y-89703390D01*
X162605714Y-89703390D02*
X162700952Y-89655771D01*
X162700952Y-89655771D02*
X162939047Y-89655771D01*
X162939047Y-89655771D02*
X163034285Y-89703390D01*
X163034285Y-89703390D02*
X163081904Y-89751009D01*
X163081904Y-89751009D02*
X163129523Y-89846247D01*
X163129523Y-89846247D02*
X163129523Y-90084342D01*
X163129523Y-90084342D02*
X163081904Y-90179580D01*
X163081904Y-90179580D02*
X163034285Y-90227200D01*
X163034285Y-90227200D02*
X162939047Y-90274819D01*
X162939047Y-90274819D02*
X162700952Y-90274819D01*
X162700952Y-90274819D02*
X162605714Y-90227200D01*
X162605714Y-90227200D02*
X162558095Y-90179580D01*
X163748571Y-89274819D02*
X163843809Y-89274819D01*
X163843809Y-89274819D02*
X163939047Y-89322438D01*
X163939047Y-89322438D02*
X163986666Y-89370057D01*
X163986666Y-89370057D02*
X164034285Y-89465295D01*
X164034285Y-89465295D02*
X164081904Y-89655771D01*
X164081904Y-89655771D02*
X164081904Y-89893866D01*
X164081904Y-89893866D02*
X164034285Y-90084342D01*
X164034285Y-90084342D02*
X163986666Y-90179580D01*
X163986666Y-90179580D02*
X163939047Y-90227200D01*
X163939047Y-90227200D02*
X163843809Y-90274819D01*
X163843809Y-90274819D02*
X163748571Y-90274819D01*
X163748571Y-90274819D02*
X163653333Y-90227200D01*
X163653333Y-90227200D02*
X163605714Y-90179580D01*
X163605714Y-90179580D02*
X163558095Y-90084342D01*
X163558095Y-90084342D02*
X163510476Y-89893866D01*
X163510476Y-89893866D02*
X163510476Y-89655771D01*
X163510476Y-89655771D02*
X163558095Y-89465295D01*
X163558095Y-89465295D02*
X163605714Y-89370057D01*
X163605714Y-89370057D02*
X163653333Y-89322438D01*
X163653333Y-89322438D02*
X163748571Y-89274819D01*
X144125714Y-78924819D02*
X144125714Y-77924819D01*
X144125714Y-77924819D02*
X144363809Y-77924819D01*
X144363809Y-77924819D02*
X144506666Y-77972438D01*
X144506666Y-77972438D02*
X144601904Y-78067676D01*
X144601904Y-78067676D02*
X144649523Y-78162914D01*
X144649523Y-78162914D02*
X144697142Y-78353390D01*
X144697142Y-78353390D02*
X144697142Y-78496247D01*
X144697142Y-78496247D02*
X144649523Y-78686723D01*
X144649523Y-78686723D02*
X144601904Y-78781961D01*
X144601904Y-78781961D02*
X144506666Y-78877200D01*
X144506666Y-78877200D02*
X144363809Y-78924819D01*
X144363809Y-78924819D02*
X144125714Y-78924819D01*
X145078095Y-78020057D02*
X145125714Y-77972438D01*
X145125714Y-77972438D02*
X145220952Y-77924819D01*
X145220952Y-77924819D02*
X145459047Y-77924819D01*
X145459047Y-77924819D02*
X145554285Y-77972438D01*
X145554285Y-77972438D02*
X145601904Y-78020057D01*
X145601904Y-78020057D02*
X145649523Y-78115295D01*
X145649523Y-78115295D02*
X145649523Y-78210533D01*
X145649523Y-78210533D02*
X145601904Y-78353390D01*
X145601904Y-78353390D02*
X145030476Y-78924819D01*
X145030476Y-78924819D02*
X145649523Y-78924819D01*
X146506666Y-78258152D02*
X146506666Y-78924819D01*
X146268571Y-77877200D02*
X146030476Y-78591485D01*
X146030476Y-78591485D02*
X146649523Y-78591485D01*
X115185714Y-73264819D02*
X115185714Y-72264819D01*
X115185714Y-72264819D02*
X115423809Y-72264819D01*
X115423809Y-72264819D02*
X115566666Y-72312438D01*
X115566666Y-72312438D02*
X115661904Y-72407676D01*
X115661904Y-72407676D02*
X115709523Y-72502914D01*
X115709523Y-72502914D02*
X115757142Y-72693390D01*
X115757142Y-72693390D02*
X115757142Y-72836247D01*
X115757142Y-72836247D02*
X115709523Y-73026723D01*
X115709523Y-73026723D02*
X115661904Y-73121961D01*
X115661904Y-73121961D02*
X115566666Y-73217200D01*
X115566666Y-73217200D02*
X115423809Y-73264819D01*
X115423809Y-73264819D02*
X115185714Y-73264819D01*
X116709523Y-73264819D02*
X116138095Y-73264819D01*
X116423809Y-73264819D02*
X116423809Y-72264819D01*
X116423809Y-72264819D02*
X116328571Y-72407676D01*
X116328571Y-72407676D02*
X116233333Y-72502914D01*
X116233333Y-72502914D02*
X116138095Y-72550533D01*
X117614285Y-72264819D02*
X117138095Y-72264819D01*
X117138095Y-72264819D02*
X117090476Y-72741009D01*
X117090476Y-72741009D02*
X117138095Y-72693390D01*
X117138095Y-72693390D02*
X117233333Y-72645771D01*
X117233333Y-72645771D02*
X117471428Y-72645771D01*
X117471428Y-72645771D02*
X117566666Y-72693390D01*
X117566666Y-72693390D02*
X117614285Y-72741009D01*
X117614285Y-72741009D02*
X117661904Y-72836247D01*
X117661904Y-72836247D02*
X117661904Y-73074342D01*
X117661904Y-73074342D02*
X117614285Y-73169580D01*
X117614285Y-73169580D02*
X117566666Y-73217200D01*
X117566666Y-73217200D02*
X117471428Y-73264819D01*
X117471428Y-73264819D02*
X117233333Y-73264819D01*
X117233333Y-73264819D02*
X117138095Y-73217200D01*
X117138095Y-73217200D02*
X117090476Y-73169580D01*
X161445714Y-78914819D02*
X161445714Y-77914819D01*
X161445714Y-77914819D02*
X161683809Y-77914819D01*
X161683809Y-77914819D02*
X161826666Y-77962438D01*
X161826666Y-77962438D02*
X161921904Y-78057676D01*
X161921904Y-78057676D02*
X161969523Y-78152914D01*
X161969523Y-78152914D02*
X162017142Y-78343390D01*
X162017142Y-78343390D02*
X162017142Y-78486247D01*
X162017142Y-78486247D02*
X161969523Y-78676723D01*
X161969523Y-78676723D02*
X161921904Y-78771961D01*
X161921904Y-78771961D02*
X161826666Y-78867200D01*
X161826666Y-78867200D02*
X161683809Y-78914819D01*
X161683809Y-78914819D02*
X161445714Y-78914819D01*
X162398095Y-78010057D02*
X162445714Y-77962438D01*
X162445714Y-77962438D02*
X162540952Y-77914819D01*
X162540952Y-77914819D02*
X162779047Y-77914819D01*
X162779047Y-77914819D02*
X162874285Y-77962438D01*
X162874285Y-77962438D02*
X162921904Y-78010057D01*
X162921904Y-78010057D02*
X162969523Y-78105295D01*
X162969523Y-78105295D02*
X162969523Y-78200533D01*
X162969523Y-78200533D02*
X162921904Y-78343390D01*
X162921904Y-78343390D02*
X162350476Y-78914819D01*
X162350476Y-78914819D02*
X162969523Y-78914819D01*
X163302857Y-77914819D02*
X163969523Y-77914819D01*
X163969523Y-77914819D02*
X163540952Y-78914819D01*
X138305714Y-96154819D02*
X138305714Y-95154819D01*
X138305714Y-95154819D02*
X138543809Y-95154819D01*
X138543809Y-95154819D02*
X138686666Y-95202438D01*
X138686666Y-95202438D02*
X138781904Y-95297676D01*
X138781904Y-95297676D02*
X138829523Y-95392914D01*
X138829523Y-95392914D02*
X138877142Y-95583390D01*
X138877142Y-95583390D02*
X138877142Y-95726247D01*
X138877142Y-95726247D02*
X138829523Y-95916723D01*
X138829523Y-95916723D02*
X138781904Y-96011961D01*
X138781904Y-96011961D02*
X138686666Y-96107200D01*
X138686666Y-96107200D02*
X138543809Y-96154819D01*
X138543809Y-96154819D02*
X138305714Y-96154819D01*
X139781904Y-95154819D02*
X139305714Y-95154819D01*
X139305714Y-95154819D02*
X139258095Y-95631009D01*
X139258095Y-95631009D02*
X139305714Y-95583390D01*
X139305714Y-95583390D02*
X139400952Y-95535771D01*
X139400952Y-95535771D02*
X139639047Y-95535771D01*
X139639047Y-95535771D02*
X139734285Y-95583390D01*
X139734285Y-95583390D02*
X139781904Y-95631009D01*
X139781904Y-95631009D02*
X139829523Y-95726247D01*
X139829523Y-95726247D02*
X139829523Y-95964342D01*
X139829523Y-95964342D02*
X139781904Y-96059580D01*
X139781904Y-96059580D02*
X139734285Y-96107200D01*
X139734285Y-96107200D02*
X139639047Y-96154819D01*
X139639047Y-96154819D02*
X139400952Y-96154819D01*
X139400952Y-96154819D02*
X139305714Y-96107200D01*
X139305714Y-96107200D02*
X139258095Y-96059580D01*
X140162857Y-95154819D02*
X140781904Y-95154819D01*
X140781904Y-95154819D02*
X140448571Y-95535771D01*
X140448571Y-95535771D02*
X140591428Y-95535771D01*
X140591428Y-95535771D02*
X140686666Y-95583390D01*
X140686666Y-95583390D02*
X140734285Y-95631009D01*
X140734285Y-95631009D02*
X140781904Y-95726247D01*
X140781904Y-95726247D02*
X140781904Y-95964342D01*
X140781904Y-95964342D02*
X140734285Y-96059580D01*
X140734285Y-96059580D02*
X140686666Y-96107200D01*
X140686666Y-96107200D02*
X140591428Y-96154819D01*
X140591428Y-96154819D02*
X140305714Y-96154819D01*
X140305714Y-96154819D02*
X140210476Y-96107200D01*
X140210476Y-96107200D02*
X140162857Y-96059580D01*
X109395714Y-84654819D02*
X109395714Y-83654819D01*
X109395714Y-83654819D02*
X109633809Y-83654819D01*
X109633809Y-83654819D02*
X109776666Y-83702438D01*
X109776666Y-83702438D02*
X109871904Y-83797676D01*
X109871904Y-83797676D02*
X109919523Y-83892914D01*
X109919523Y-83892914D02*
X109967142Y-84083390D01*
X109967142Y-84083390D02*
X109967142Y-84226247D01*
X109967142Y-84226247D02*
X109919523Y-84416723D01*
X109919523Y-84416723D02*
X109871904Y-84511961D01*
X109871904Y-84511961D02*
X109776666Y-84607200D01*
X109776666Y-84607200D02*
X109633809Y-84654819D01*
X109633809Y-84654819D02*
X109395714Y-84654819D01*
X110300476Y-83654819D02*
X110919523Y-83654819D01*
X110919523Y-83654819D02*
X110586190Y-84035771D01*
X110586190Y-84035771D02*
X110729047Y-84035771D01*
X110729047Y-84035771D02*
X110824285Y-84083390D01*
X110824285Y-84083390D02*
X110871904Y-84131009D01*
X110871904Y-84131009D02*
X110919523Y-84226247D01*
X110919523Y-84226247D02*
X110919523Y-84464342D01*
X110919523Y-84464342D02*
X110871904Y-84559580D01*
X110871904Y-84559580D02*
X110824285Y-84607200D01*
X110824285Y-84607200D02*
X110729047Y-84654819D01*
X110729047Y-84654819D02*
X110443333Y-84654819D01*
X110443333Y-84654819D02*
X110348095Y-84607200D01*
X110348095Y-84607200D02*
X110300476Y-84559580D01*
X111395714Y-84654819D02*
X111586190Y-84654819D01*
X111586190Y-84654819D02*
X111681428Y-84607200D01*
X111681428Y-84607200D02*
X111729047Y-84559580D01*
X111729047Y-84559580D02*
X111824285Y-84416723D01*
X111824285Y-84416723D02*
X111871904Y-84226247D01*
X111871904Y-84226247D02*
X111871904Y-83845295D01*
X111871904Y-83845295D02*
X111824285Y-83750057D01*
X111824285Y-83750057D02*
X111776666Y-83702438D01*
X111776666Y-83702438D02*
X111681428Y-83654819D01*
X111681428Y-83654819D02*
X111490952Y-83654819D01*
X111490952Y-83654819D02*
X111395714Y-83702438D01*
X111395714Y-83702438D02*
X111348095Y-83750057D01*
X111348095Y-83750057D02*
X111300476Y-83845295D01*
X111300476Y-83845295D02*
X111300476Y-84083390D01*
X111300476Y-84083390D02*
X111348095Y-84178628D01*
X111348095Y-84178628D02*
X111395714Y-84226247D01*
X111395714Y-84226247D02*
X111490952Y-84273866D01*
X111490952Y-84273866D02*
X111681428Y-84273866D01*
X111681428Y-84273866D02*
X111776666Y-84226247D01*
X111776666Y-84226247D02*
X111824285Y-84178628D01*
X111824285Y-84178628D02*
X111871904Y-84083390D01*
X109415714Y-78944819D02*
X109415714Y-77944819D01*
X109415714Y-77944819D02*
X109653809Y-77944819D01*
X109653809Y-77944819D02*
X109796666Y-77992438D01*
X109796666Y-77992438D02*
X109891904Y-78087676D01*
X109891904Y-78087676D02*
X109939523Y-78182914D01*
X109939523Y-78182914D02*
X109987142Y-78373390D01*
X109987142Y-78373390D02*
X109987142Y-78516247D01*
X109987142Y-78516247D02*
X109939523Y-78706723D01*
X109939523Y-78706723D02*
X109891904Y-78801961D01*
X109891904Y-78801961D02*
X109796666Y-78897200D01*
X109796666Y-78897200D02*
X109653809Y-78944819D01*
X109653809Y-78944819D02*
X109415714Y-78944819D01*
X110939523Y-78944819D02*
X110368095Y-78944819D01*
X110653809Y-78944819D02*
X110653809Y-77944819D01*
X110653809Y-77944819D02*
X110558571Y-78087676D01*
X110558571Y-78087676D02*
X110463333Y-78182914D01*
X110463333Y-78182914D02*
X110368095Y-78230533D01*
X111510952Y-78373390D02*
X111415714Y-78325771D01*
X111415714Y-78325771D02*
X111368095Y-78278152D01*
X111368095Y-78278152D02*
X111320476Y-78182914D01*
X111320476Y-78182914D02*
X111320476Y-78135295D01*
X111320476Y-78135295D02*
X111368095Y-78040057D01*
X111368095Y-78040057D02*
X111415714Y-77992438D01*
X111415714Y-77992438D02*
X111510952Y-77944819D01*
X111510952Y-77944819D02*
X111701428Y-77944819D01*
X111701428Y-77944819D02*
X111796666Y-77992438D01*
X111796666Y-77992438D02*
X111844285Y-78040057D01*
X111844285Y-78040057D02*
X111891904Y-78135295D01*
X111891904Y-78135295D02*
X111891904Y-78182914D01*
X111891904Y-78182914D02*
X111844285Y-78278152D01*
X111844285Y-78278152D02*
X111796666Y-78325771D01*
X111796666Y-78325771D02*
X111701428Y-78373390D01*
X111701428Y-78373390D02*
X111510952Y-78373390D01*
X111510952Y-78373390D02*
X111415714Y-78421009D01*
X111415714Y-78421009D02*
X111368095Y-78468628D01*
X111368095Y-78468628D02*
X111320476Y-78563866D01*
X111320476Y-78563866D02*
X111320476Y-78754342D01*
X111320476Y-78754342D02*
X111368095Y-78849580D01*
X111368095Y-78849580D02*
X111415714Y-78897200D01*
X111415714Y-78897200D02*
X111510952Y-78944819D01*
X111510952Y-78944819D02*
X111701428Y-78944819D01*
X111701428Y-78944819D02*
X111796666Y-78897200D01*
X111796666Y-78897200D02*
X111844285Y-78849580D01*
X111844285Y-78849580D02*
X111891904Y-78754342D01*
X111891904Y-78754342D02*
X111891904Y-78563866D01*
X111891904Y-78563866D02*
X111844285Y-78468628D01*
X111844285Y-78468628D02*
X111796666Y-78421009D01*
X111796666Y-78421009D02*
X111701428Y-78373390D01*
X115095714Y-90284819D02*
X115095714Y-89284819D01*
X115095714Y-89284819D02*
X115333809Y-89284819D01*
X115333809Y-89284819D02*
X115476666Y-89332438D01*
X115476666Y-89332438D02*
X115571904Y-89427676D01*
X115571904Y-89427676D02*
X115619523Y-89522914D01*
X115619523Y-89522914D02*
X115667142Y-89713390D01*
X115667142Y-89713390D02*
X115667142Y-89856247D01*
X115667142Y-89856247D02*
X115619523Y-90046723D01*
X115619523Y-90046723D02*
X115571904Y-90141961D01*
X115571904Y-90141961D02*
X115476666Y-90237200D01*
X115476666Y-90237200D02*
X115333809Y-90284819D01*
X115333809Y-90284819D02*
X115095714Y-90284819D01*
X116524285Y-89618152D02*
X116524285Y-90284819D01*
X116286190Y-89237200D02*
X116048095Y-89951485D01*
X116048095Y-89951485D02*
X116667142Y-89951485D01*
X117000476Y-89380057D02*
X117048095Y-89332438D01*
X117048095Y-89332438D02*
X117143333Y-89284819D01*
X117143333Y-89284819D02*
X117381428Y-89284819D01*
X117381428Y-89284819D02*
X117476666Y-89332438D01*
X117476666Y-89332438D02*
X117524285Y-89380057D01*
X117524285Y-89380057D02*
X117571904Y-89475295D01*
X117571904Y-89475295D02*
X117571904Y-89570533D01*
X117571904Y-89570533D02*
X117524285Y-89713390D01*
X117524285Y-89713390D02*
X116952857Y-90284819D01*
X116952857Y-90284819D02*
X117571904Y-90284819D01*
X120825714Y-78974819D02*
X120825714Y-77974819D01*
X120825714Y-77974819D02*
X121063809Y-77974819D01*
X121063809Y-77974819D02*
X121206666Y-78022438D01*
X121206666Y-78022438D02*
X121301904Y-78117676D01*
X121301904Y-78117676D02*
X121349523Y-78212914D01*
X121349523Y-78212914D02*
X121397142Y-78403390D01*
X121397142Y-78403390D02*
X121397142Y-78546247D01*
X121397142Y-78546247D02*
X121349523Y-78736723D01*
X121349523Y-78736723D02*
X121301904Y-78831961D01*
X121301904Y-78831961D02*
X121206666Y-78927200D01*
X121206666Y-78927200D02*
X121063809Y-78974819D01*
X121063809Y-78974819D02*
X120825714Y-78974819D01*
X121778095Y-78070057D02*
X121825714Y-78022438D01*
X121825714Y-78022438D02*
X121920952Y-77974819D01*
X121920952Y-77974819D02*
X122159047Y-77974819D01*
X122159047Y-77974819D02*
X122254285Y-78022438D01*
X122254285Y-78022438D02*
X122301904Y-78070057D01*
X122301904Y-78070057D02*
X122349523Y-78165295D01*
X122349523Y-78165295D02*
X122349523Y-78260533D01*
X122349523Y-78260533D02*
X122301904Y-78403390D01*
X122301904Y-78403390D02*
X121730476Y-78974819D01*
X121730476Y-78974819D02*
X122349523Y-78974819D01*
X122968571Y-77974819D02*
X123063809Y-77974819D01*
X123063809Y-77974819D02*
X123159047Y-78022438D01*
X123159047Y-78022438D02*
X123206666Y-78070057D01*
X123206666Y-78070057D02*
X123254285Y-78165295D01*
X123254285Y-78165295D02*
X123301904Y-78355771D01*
X123301904Y-78355771D02*
X123301904Y-78593866D01*
X123301904Y-78593866D02*
X123254285Y-78784342D01*
X123254285Y-78784342D02*
X123206666Y-78879580D01*
X123206666Y-78879580D02*
X123159047Y-78927200D01*
X123159047Y-78927200D02*
X123063809Y-78974819D01*
X123063809Y-78974819D02*
X122968571Y-78974819D01*
X122968571Y-78974819D02*
X122873333Y-78927200D01*
X122873333Y-78927200D02*
X122825714Y-78879580D01*
X122825714Y-78879580D02*
X122778095Y-78784342D01*
X122778095Y-78784342D02*
X122730476Y-78593866D01*
X122730476Y-78593866D02*
X122730476Y-78355771D01*
X122730476Y-78355771D02*
X122778095Y-78165295D01*
X122778095Y-78165295D02*
X122825714Y-78070057D01*
X122825714Y-78070057D02*
X122873333Y-78022438D01*
X122873333Y-78022438D02*
X122968571Y-77974819D01*
X150501905Y-73274819D02*
X150501905Y-72274819D01*
X150501905Y-72274819D02*
X150740000Y-72274819D01*
X150740000Y-72274819D02*
X150882857Y-72322438D01*
X150882857Y-72322438D02*
X150978095Y-72417676D01*
X150978095Y-72417676D02*
X151025714Y-72512914D01*
X151025714Y-72512914D02*
X151073333Y-72703390D01*
X151073333Y-72703390D02*
X151073333Y-72846247D01*
X151073333Y-72846247D02*
X151025714Y-73036723D01*
X151025714Y-73036723D02*
X150978095Y-73131961D01*
X150978095Y-73131961D02*
X150882857Y-73227200D01*
X150882857Y-73227200D02*
X150740000Y-73274819D01*
X150740000Y-73274819D02*
X150501905Y-73274819D01*
X151549524Y-73274819D02*
X151740000Y-73274819D01*
X151740000Y-73274819D02*
X151835238Y-73227200D01*
X151835238Y-73227200D02*
X151882857Y-73179580D01*
X151882857Y-73179580D02*
X151978095Y-73036723D01*
X151978095Y-73036723D02*
X152025714Y-72846247D01*
X152025714Y-72846247D02*
X152025714Y-72465295D01*
X152025714Y-72465295D02*
X151978095Y-72370057D01*
X151978095Y-72370057D02*
X151930476Y-72322438D01*
X151930476Y-72322438D02*
X151835238Y-72274819D01*
X151835238Y-72274819D02*
X151644762Y-72274819D01*
X151644762Y-72274819D02*
X151549524Y-72322438D01*
X151549524Y-72322438D02*
X151501905Y-72370057D01*
X151501905Y-72370057D02*
X151454286Y-72465295D01*
X151454286Y-72465295D02*
X151454286Y-72703390D01*
X151454286Y-72703390D02*
X151501905Y-72798628D01*
X151501905Y-72798628D02*
X151549524Y-72846247D01*
X151549524Y-72846247D02*
X151644762Y-72893866D01*
X151644762Y-72893866D02*
X151835238Y-72893866D01*
X151835238Y-72893866D02*
X151930476Y-72846247D01*
X151930476Y-72846247D02*
X151978095Y-72798628D01*
X151978095Y-72798628D02*
X152025714Y-72703390D01*
X156301905Y-73244819D02*
X156301905Y-72244819D01*
X156301905Y-72244819D02*
X156540000Y-72244819D01*
X156540000Y-72244819D02*
X156682857Y-72292438D01*
X156682857Y-72292438D02*
X156778095Y-72387676D01*
X156778095Y-72387676D02*
X156825714Y-72482914D01*
X156825714Y-72482914D02*
X156873333Y-72673390D01*
X156873333Y-72673390D02*
X156873333Y-72816247D01*
X156873333Y-72816247D02*
X156825714Y-73006723D01*
X156825714Y-73006723D02*
X156778095Y-73101961D01*
X156778095Y-73101961D02*
X156682857Y-73197200D01*
X156682857Y-73197200D02*
X156540000Y-73244819D01*
X156540000Y-73244819D02*
X156301905Y-73244819D01*
X157444762Y-72673390D02*
X157349524Y-72625771D01*
X157349524Y-72625771D02*
X157301905Y-72578152D01*
X157301905Y-72578152D02*
X157254286Y-72482914D01*
X157254286Y-72482914D02*
X157254286Y-72435295D01*
X157254286Y-72435295D02*
X157301905Y-72340057D01*
X157301905Y-72340057D02*
X157349524Y-72292438D01*
X157349524Y-72292438D02*
X157444762Y-72244819D01*
X157444762Y-72244819D02*
X157635238Y-72244819D01*
X157635238Y-72244819D02*
X157730476Y-72292438D01*
X157730476Y-72292438D02*
X157778095Y-72340057D01*
X157778095Y-72340057D02*
X157825714Y-72435295D01*
X157825714Y-72435295D02*
X157825714Y-72482914D01*
X157825714Y-72482914D02*
X157778095Y-72578152D01*
X157778095Y-72578152D02*
X157730476Y-72625771D01*
X157730476Y-72625771D02*
X157635238Y-72673390D01*
X157635238Y-72673390D02*
X157444762Y-72673390D01*
X157444762Y-72673390D02*
X157349524Y-72721009D01*
X157349524Y-72721009D02*
X157301905Y-72768628D01*
X157301905Y-72768628D02*
X157254286Y-72863866D01*
X157254286Y-72863866D02*
X157254286Y-73054342D01*
X157254286Y-73054342D02*
X157301905Y-73149580D01*
X157301905Y-73149580D02*
X157349524Y-73197200D01*
X157349524Y-73197200D02*
X157444762Y-73244819D01*
X157444762Y-73244819D02*
X157635238Y-73244819D01*
X157635238Y-73244819D02*
X157730476Y-73197200D01*
X157730476Y-73197200D02*
X157778095Y-73149580D01*
X157778095Y-73149580D02*
X157825714Y-73054342D01*
X157825714Y-73054342D02*
X157825714Y-72863866D01*
X157825714Y-72863866D02*
X157778095Y-72768628D01*
X157778095Y-72768628D02*
X157730476Y-72721009D01*
X157730476Y-72721009D02*
X157635238Y-72673390D01*
X144701905Y-67484819D02*
X144701905Y-66484819D01*
X144701905Y-66484819D02*
X144940000Y-66484819D01*
X144940000Y-66484819D02*
X145082857Y-66532438D01*
X145082857Y-66532438D02*
X145178095Y-66627676D01*
X145178095Y-66627676D02*
X145225714Y-66722914D01*
X145225714Y-66722914D02*
X145273333Y-66913390D01*
X145273333Y-66913390D02*
X145273333Y-67056247D01*
X145273333Y-67056247D02*
X145225714Y-67246723D01*
X145225714Y-67246723D02*
X145178095Y-67341961D01*
X145178095Y-67341961D02*
X145082857Y-67437200D01*
X145082857Y-67437200D02*
X144940000Y-67484819D01*
X144940000Y-67484819D02*
X144701905Y-67484819D01*
X146178095Y-66484819D02*
X145701905Y-66484819D01*
X145701905Y-66484819D02*
X145654286Y-66961009D01*
X145654286Y-66961009D02*
X145701905Y-66913390D01*
X145701905Y-66913390D02*
X145797143Y-66865771D01*
X145797143Y-66865771D02*
X146035238Y-66865771D01*
X146035238Y-66865771D02*
X146130476Y-66913390D01*
X146130476Y-66913390D02*
X146178095Y-66961009D01*
X146178095Y-66961009D02*
X146225714Y-67056247D01*
X146225714Y-67056247D02*
X146225714Y-67294342D01*
X146225714Y-67294342D02*
X146178095Y-67389580D01*
X146178095Y-67389580D02*
X146130476Y-67437200D01*
X146130476Y-67437200D02*
X146035238Y-67484819D01*
X146035238Y-67484819D02*
X145797143Y-67484819D01*
X145797143Y-67484819D02*
X145701905Y-67437200D01*
X145701905Y-67437200D02*
X145654286Y-67389580D01*
X167085714Y-84644819D02*
X167085714Y-83644819D01*
X167085714Y-83644819D02*
X167323809Y-83644819D01*
X167323809Y-83644819D02*
X167466666Y-83692438D01*
X167466666Y-83692438D02*
X167561904Y-83787676D01*
X167561904Y-83787676D02*
X167609523Y-83882914D01*
X167609523Y-83882914D02*
X167657142Y-84073390D01*
X167657142Y-84073390D02*
X167657142Y-84216247D01*
X167657142Y-84216247D02*
X167609523Y-84406723D01*
X167609523Y-84406723D02*
X167561904Y-84501961D01*
X167561904Y-84501961D02*
X167466666Y-84597200D01*
X167466666Y-84597200D02*
X167323809Y-84644819D01*
X167323809Y-84644819D02*
X167085714Y-84644819D01*
X168038095Y-83740057D02*
X168085714Y-83692438D01*
X168085714Y-83692438D02*
X168180952Y-83644819D01*
X168180952Y-83644819D02*
X168419047Y-83644819D01*
X168419047Y-83644819D02*
X168514285Y-83692438D01*
X168514285Y-83692438D02*
X168561904Y-83740057D01*
X168561904Y-83740057D02*
X168609523Y-83835295D01*
X168609523Y-83835295D02*
X168609523Y-83930533D01*
X168609523Y-83930533D02*
X168561904Y-84073390D01*
X168561904Y-84073390D02*
X167990476Y-84644819D01*
X167990476Y-84644819D02*
X168609523Y-84644819D01*
X169085714Y-84644819D02*
X169276190Y-84644819D01*
X169276190Y-84644819D02*
X169371428Y-84597200D01*
X169371428Y-84597200D02*
X169419047Y-84549580D01*
X169419047Y-84549580D02*
X169514285Y-84406723D01*
X169514285Y-84406723D02*
X169561904Y-84216247D01*
X169561904Y-84216247D02*
X169561904Y-83835295D01*
X169561904Y-83835295D02*
X169514285Y-83740057D01*
X169514285Y-83740057D02*
X169466666Y-83692438D01*
X169466666Y-83692438D02*
X169371428Y-83644819D01*
X169371428Y-83644819D02*
X169180952Y-83644819D01*
X169180952Y-83644819D02*
X169085714Y-83692438D01*
X169085714Y-83692438D02*
X169038095Y-83740057D01*
X169038095Y-83740057D02*
X168990476Y-83835295D01*
X168990476Y-83835295D02*
X168990476Y-84073390D01*
X168990476Y-84073390D02*
X169038095Y-84168628D01*
X169038095Y-84168628D02*
X169085714Y-84216247D01*
X169085714Y-84216247D02*
X169180952Y-84263866D01*
X169180952Y-84263866D02*
X169371428Y-84263866D01*
X169371428Y-84263866D02*
X169466666Y-84216247D01*
X169466666Y-84216247D02*
X169514285Y-84168628D01*
X169514285Y-84168628D02*
X169561904Y-84073390D01*
X132505714Y-90244819D02*
X132505714Y-89244819D01*
X132505714Y-89244819D02*
X132743809Y-89244819D01*
X132743809Y-89244819D02*
X132886666Y-89292438D01*
X132886666Y-89292438D02*
X132981904Y-89387676D01*
X132981904Y-89387676D02*
X133029523Y-89482914D01*
X133029523Y-89482914D02*
X133077142Y-89673390D01*
X133077142Y-89673390D02*
X133077142Y-89816247D01*
X133077142Y-89816247D02*
X133029523Y-90006723D01*
X133029523Y-90006723D02*
X132981904Y-90101961D01*
X132981904Y-90101961D02*
X132886666Y-90197200D01*
X132886666Y-90197200D02*
X132743809Y-90244819D01*
X132743809Y-90244819D02*
X132505714Y-90244819D01*
X133934285Y-89578152D02*
X133934285Y-90244819D01*
X133696190Y-89197200D02*
X133458095Y-89911485D01*
X133458095Y-89911485D02*
X134077142Y-89911485D01*
X134934285Y-89244819D02*
X134458095Y-89244819D01*
X134458095Y-89244819D02*
X134410476Y-89721009D01*
X134410476Y-89721009D02*
X134458095Y-89673390D01*
X134458095Y-89673390D02*
X134553333Y-89625771D01*
X134553333Y-89625771D02*
X134791428Y-89625771D01*
X134791428Y-89625771D02*
X134886666Y-89673390D01*
X134886666Y-89673390D02*
X134934285Y-89721009D01*
X134934285Y-89721009D02*
X134981904Y-89816247D01*
X134981904Y-89816247D02*
X134981904Y-90054342D01*
X134981904Y-90054342D02*
X134934285Y-90149580D01*
X134934285Y-90149580D02*
X134886666Y-90197200D01*
X134886666Y-90197200D02*
X134791428Y-90244819D01*
X134791428Y-90244819D02*
X134553333Y-90244819D01*
X134553333Y-90244819D02*
X134458095Y-90197200D01*
X134458095Y-90197200D02*
X134410476Y-90149580D01*
X149965714Y-90274819D02*
X149965714Y-89274819D01*
X149965714Y-89274819D02*
X150203809Y-89274819D01*
X150203809Y-89274819D02*
X150346666Y-89322438D01*
X150346666Y-89322438D02*
X150441904Y-89417676D01*
X150441904Y-89417676D02*
X150489523Y-89512914D01*
X150489523Y-89512914D02*
X150537142Y-89703390D01*
X150537142Y-89703390D02*
X150537142Y-89846247D01*
X150537142Y-89846247D02*
X150489523Y-90036723D01*
X150489523Y-90036723D02*
X150441904Y-90131961D01*
X150441904Y-90131961D02*
X150346666Y-90227200D01*
X150346666Y-90227200D02*
X150203809Y-90274819D01*
X150203809Y-90274819D02*
X149965714Y-90274819D01*
X151394285Y-89608152D02*
X151394285Y-90274819D01*
X151156190Y-89227200D02*
X150918095Y-89941485D01*
X150918095Y-89941485D02*
X151537142Y-89941485D01*
X152060952Y-89703390D02*
X151965714Y-89655771D01*
X151965714Y-89655771D02*
X151918095Y-89608152D01*
X151918095Y-89608152D02*
X151870476Y-89512914D01*
X151870476Y-89512914D02*
X151870476Y-89465295D01*
X151870476Y-89465295D02*
X151918095Y-89370057D01*
X151918095Y-89370057D02*
X151965714Y-89322438D01*
X151965714Y-89322438D02*
X152060952Y-89274819D01*
X152060952Y-89274819D02*
X152251428Y-89274819D01*
X152251428Y-89274819D02*
X152346666Y-89322438D01*
X152346666Y-89322438D02*
X152394285Y-89370057D01*
X152394285Y-89370057D02*
X152441904Y-89465295D01*
X152441904Y-89465295D02*
X152441904Y-89512914D01*
X152441904Y-89512914D02*
X152394285Y-89608152D01*
X152394285Y-89608152D02*
X152346666Y-89655771D01*
X152346666Y-89655771D02*
X152251428Y-89703390D01*
X152251428Y-89703390D02*
X152060952Y-89703390D01*
X152060952Y-89703390D02*
X151965714Y-89751009D01*
X151965714Y-89751009D02*
X151918095Y-89798628D01*
X151918095Y-89798628D02*
X151870476Y-89893866D01*
X151870476Y-89893866D02*
X151870476Y-90084342D01*
X151870476Y-90084342D02*
X151918095Y-90179580D01*
X151918095Y-90179580D02*
X151965714Y-90227200D01*
X151965714Y-90227200D02*
X152060952Y-90274819D01*
X152060952Y-90274819D02*
X152251428Y-90274819D01*
X152251428Y-90274819D02*
X152346666Y-90227200D01*
X152346666Y-90227200D02*
X152394285Y-90179580D01*
X152394285Y-90179580D02*
X152441904Y-90084342D01*
X152441904Y-90084342D02*
X152441904Y-89893866D01*
X152441904Y-89893866D02*
X152394285Y-89798628D01*
X152394285Y-89798628D02*
X152346666Y-89751009D01*
X152346666Y-89751009D02*
X152251428Y-89703390D01*
X138355714Y-84734819D02*
X138355714Y-83734819D01*
X138355714Y-83734819D02*
X138593809Y-83734819D01*
X138593809Y-83734819D02*
X138736666Y-83782438D01*
X138736666Y-83782438D02*
X138831904Y-83877676D01*
X138831904Y-83877676D02*
X138879523Y-83972914D01*
X138879523Y-83972914D02*
X138927142Y-84163390D01*
X138927142Y-84163390D02*
X138927142Y-84306247D01*
X138927142Y-84306247D02*
X138879523Y-84496723D01*
X138879523Y-84496723D02*
X138831904Y-84591961D01*
X138831904Y-84591961D02*
X138736666Y-84687200D01*
X138736666Y-84687200D02*
X138593809Y-84734819D01*
X138593809Y-84734819D02*
X138355714Y-84734819D01*
X139260476Y-83734819D02*
X139879523Y-83734819D01*
X139879523Y-83734819D02*
X139546190Y-84115771D01*
X139546190Y-84115771D02*
X139689047Y-84115771D01*
X139689047Y-84115771D02*
X139784285Y-84163390D01*
X139784285Y-84163390D02*
X139831904Y-84211009D01*
X139831904Y-84211009D02*
X139879523Y-84306247D01*
X139879523Y-84306247D02*
X139879523Y-84544342D01*
X139879523Y-84544342D02*
X139831904Y-84639580D01*
X139831904Y-84639580D02*
X139784285Y-84687200D01*
X139784285Y-84687200D02*
X139689047Y-84734819D01*
X139689047Y-84734819D02*
X139403333Y-84734819D01*
X139403333Y-84734819D02*
X139308095Y-84687200D01*
X139308095Y-84687200D02*
X139260476Y-84639580D01*
X140736666Y-84068152D02*
X140736666Y-84734819D01*
X140498571Y-83687200D02*
X140260476Y-84401485D01*
X140260476Y-84401485D02*
X140879523Y-84401485D01*
X120985714Y-73224819D02*
X120985714Y-72224819D01*
X120985714Y-72224819D02*
X121223809Y-72224819D01*
X121223809Y-72224819D02*
X121366666Y-72272438D01*
X121366666Y-72272438D02*
X121461904Y-72367676D01*
X121461904Y-72367676D02*
X121509523Y-72462914D01*
X121509523Y-72462914D02*
X121557142Y-72653390D01*
X121557142Y-72653390D02*
X121557142Y-72796247D01*
X121557142Y-72796247D02*
X121509523Y-72986723D01*
X121509523Y-72986723D02*
X121461904Y-73081961D01*
X121461904Y-73081961D02*
X121366666Y-73177200D01*
X121366666Y-73177200D02*
X121223809Y-73224819D01*
X121223809Y-73224819D02*
X120985714Y-73224819D01*
X122509523Y-73224819D02*
X121938095Y-73224819D01*
X122223809Y-73224819D02*
X122223809Y-72224819D01*
X122223809Y-72224819D02*
X122128571Y-72367676D01*
X122128571Y-72367676D02*
X122033333Y-72462914D01*
X122033333Y-72462914D02*
X121938095Y-72510533D01*
X123366666Y-72558152D02*
X123366666Y-73224819D01*
X123128571Y-72177200D02*
X122890476Y-72891485D01*
X122890476Y-72891485D02*
X123509523Y-72891485D01*
X144195714Y-73214819D02*
X144195714Y-72214819D01*
X144195714Y-72214819D02*
X144433809Y-72214819D01*
X144433809Y-72214819D02*
X144576666Y-72262438D01*
X144576666Y-72262438D02*
X144671904Y-72357676D01*
X144671904Y-72357676D02*
X144719523Y-72452914D01*
X144719523Y-72452914D02*
X144767142Y-72643390D01*
X144767142Y-72643390D02*
X144767142Y-72786247D01*
X144767142Y-72786247D02*
X144719523Y-72976723D01*
X144719523Y-72976723D02*
X144671904Y-73071961D01*
X144671904Y-73071961D02*
X144576666Y-73167200D01*
X144576666Y-73167200D02*
X144433809Y-73214819D01*
X144433809Y-73214819D02*
X144195714Y-73214819D01*
X145719523Y-73214819D02*
X145148095Y-73214819D01*
X145433809Y-73214819D02*
X145433809Y-72214819D01*
X145433809Y-72214819D02*
X145338571Y-72357676D01*
X145338571Y-72357676D02*
X145243333Y-72452914D01*
X145243333Y-72452914D02*
X145148095Y-72500533D01*
X146338571Y-72214819D02*
X146433809Y-72214819D01*
X146433809Y-72214819D02*
X146529047Y-72262438D01*
X146529047Y-72262438D02*
X146576666Y-72310057D01*
X146576666Y-72310057D02*
X146624285Y-72405295D01*
X146624285Y-72405295D02*
X146671904Y-72595771D01*
X146671904Y-72595771D02*
X146671904Y-72833866D01*
X146671904Y-72833866D02*
X146624285Y-73024342D01*
X146624285Y-73024342D02*
X146576666Y-73119580D01*
X146576666Y-73119580D02*
X146529047Y-73167200D01*
X146529047Y-73167200D02*
X146433809Y-73214819D01*
X146433809Y-73214819D02*
X146338571Y-73214819D01*
X146338571Y-73214819D02*
X146243333Y-73167200D01*
X146243333Y-73167200D02*
X146195714Y-73119580D01*
X146195714Y-73119580D02*
X146148095Y-73024342D01*
X146148095Y-73024342D02*
X146100476Y-72833866D01*
X146100476Y-72833866D02*
X146100476Y-72595771D01*
X146100476Y-72595771D02*
X146148095Y-72405295D01*
X146148095Y-72405295D02*
X146195714Y-72310057D01*
X146195714Y-72310057D02*
X146243333Y-72262438D01*
X146243333Y-72262438D02*
X146338571Y-72214819D01*
X138325714Y-73264819D02*
X138325714Y-72264819D01*
X138325714Y-72264819D02*
X138563809Y-72264819D01*
X138563809Y-72264819D02*
X138706666Y-72312438D01*
X138706666Y-72312438D02*
X138801904Y-72407676D01*
X138801904Y-72407676D02*
X138849523Y-72502914D01*
X138849523Y-72502914D02*
X138897142Y-72693390D01*
X138897142Y-72693390D02*
X138897142Y-72836247D01*
X138897142Y-72836247D02*
X138849523Y-73026723D01*
X138849523Y-73026723D02*
X138801904Y-73121961D01*
X138801904Y-73121961D02*
X138706666Y-73217200D01*
X138706666Y-73217200D02*
X138563809Y-73264819D01*
X138563809Y-73264819D02*
X138325714Y-73264819D01*
X139849523Y-73264819D02*
X139278095Y-73264819D01*
X139563809Y-73264819D02*
X139563809Y-72264819D01*
X139563809Y-72264819D02*
X139468571Y-72407676D01*
X139468571Y-72407676D02*
X139373333Y-72502914D01*
X139373333Y-72502914D02*
X139278095Y-72550533D01*
X140801904Y-73264819D02*
X140230476Y-73264819D01*
X140516190Y-73264819D02*
X140516190Y-72264819D01*
X140516190Y-72264819D02*
X140420952Y-72407676D01*
X140420952Y-72407676D02*
X140325714Y-72502914D01*
X140325714Y-72502914D02*
X140230476Y-72550533D01*
X138851905Y-67544819D02*
X138851905Y-66544819D01*
X138851905Y-66544819D02*
X139090000Y-66544819D01*
X139090000Y-66544819D02*
X139232857Y-66592438D01*
X139232857Y-66592438D02*
X139328095Y-66687676D01*
X139328095Y-66687676D02*
X139375714Y-66782914D01*
X139375714Y-66782914D02*
X139423333Y-66973390D01*
X139423333Y-66973390D02*
X139423333Y-67116247D01*
X139423333Y-67116247D02*
X139375714Y-67306723D01*
X139375714Y-67306723D02*
X139328095Y-67401961D01*
X139328095Y-67401961D02*
X139232857Y-67497200D01*
X139232857Y-67497200D02*
X139090000Y-67544819D01*
X139090000Y-67544819D02*
X138851905Y-67544819D01*
X140280476Y-66878152D02*
X140280476Y-67544819D01*
X140042381Y-66497200D02*
X139804286Y-67211485D01*
X139804286Y-67211485D02*
X140423333Y-67211485D01*
X132425714Y-78944819D02*
X132425714Y-77944819D01*
X132425714Y-77944819D02*
X132663809Y-77944819D01*
X132663809Y-77944819D02*
X132806666Y-77992438D01*
X132806666Y-77992438D02*
X132901904Y-78087676D01*
X132901904Y-78087676D02*
X132949523Y-78182914D01*
X132949523Y-78182914D02*
X132997142Y-78373390D01*
X132997142Y-78373390D02*
X132997142Y-78516247D01*
X132997142Y-78516247D02*
X132949523Y-78706723D01*
X132949523Y-78706723D02*
X132901904Y-78801961D01*
X132901904Y-78801961D02*
X132806666Y-78897200D01*
X132806666Y-78897200D02*
X132663809Y-78944819D01*
X132663809Y-78944819D02*
X132425714Y-78944819D01*
X133378095Y-78040057D02*
X133425714Y-77992438D01*
X133425714Y-77992438D02*
X133520952Y-77944819D01*
X133520952Y-77944819D02*
X133759047Y-77944819D01*
X133759047Y-77944819D02*
X133854285Y-77992438D01*
X133854285Y-77992438D02*
X133901904Y-78040057D01*
X133901904Y-78040057D02*
X133949523Y-78135295D01*
X133949523Y-78135295D02*
X133949523Y-78230533D01*
X133949523Y-78230533D02*
X133901904Y-78373390D01*
X133901904Y-78373390D02*
X133330476Y-78944819D01*
X133330476Y-78944819D02*
X133949523Y-78944819D01*
X134330476Y-78040057D02*
X134378095Y-77992438D01*
X134378095Y-77992438D02*
X134473333Y-77944819D01*
X134473333Y-77944819D02*
X134711428Y-77944819D01*
X134711428Y-77944819D02*
X134806666Y-77992438D01*
X134806666Y-77992438D02*
X134854285Y-78040057D01*
X134854285Y-78040057D02*
X134901904Y-78135295D01*
X134901904Y-78135295D02*
X134901904Y-78230533D01*
X134901904Y-78230533D02*
X134854285Y-78373390D01*
X134854285Y-78373390D02*
X134282857Y-78944819D01*
X134282857Y-78944819D02*
X134901904Y-78944819D01*
X144225714Y-84704819D02*
X144225714Y-83704819D01*
X144225714Y-83704819D02*
X144463809Y-83704819D01*
X144463809Y-83704819D02*
X144606666Y-83752438D01*
X144606666Y-83752438D02*
X144701904Y-83847676D01*
X144701904Y-83847676D02*
X144749523Y-83942914D01*
X144749523Y-83942914D02*
X144797142Y-84133390D01*
X144797142Y-84133390D02*
X144797142Y-84276247D01*
X144797142Y-84276247D02*
X144749523Y-84466723D01*
X144749523Y-84466723D02*
X144701904Y-84561961D01*
X144701904Y-84561961D02*
X144606666Y-84657200D01*
X144606666Y-84657200D02*
X144463809Y-84704819D01*
X144463809Y-84704819D02*
X144225714Y-84704819D01*
X145130476Y-83704819D02*
X145749523Y-83704819D01*
X145749523Y-83704819D02*
X145416190Y-84085771D01*
X145416190Y-84085771D02*
X145559047Y-84085771D01*
X145559047Y-84085771D02*
X145654285Y-84133390D01*
X145654285Y-84133390D02*
X145701904Y-84181009D01*
X145701904Y-84181009D02*
X145749523Y-84276247D01*
X145749523Y-84276247D02*
X145749523Y-84514342D01*
X145749523Y-84514342D02*
X145701904Y-84609580D01*
X145701904Y-84609580D02*
X145654285Y-84657200D01*
X145654285Y-84657200D02*
X145559047Y-84704819D01*
X145559047Y-84704819D02*
X145273333Y-84704819D01*
X145273333Y-84704819D02*
X145178095Y-84657200D01*
X145178095Y-84657200D02*
X145130476Y-84609580D01*
X146082857Y-83704819D02*
X146701904Y-83704819D01*
X146701904Y-83704819D02*
X146368571Y-84085771D01*
X146368571Y-84085771D02*
X146511428Y-84085771D01*
X146511428Y-84085771D02*
X146606666Y-84133390D01*
X146606666Y-84133390D02*
X146654285Y-84181009D01*
X146654285Y-84181009D02*
X146701904Y-84276247D01*
X146701904Y-84276247D02*
X146701904Y-84514342D01*
X146701904Y-84514342D02*
X146654285Y-84609580D01*
X146654285Y-84609580D02*
X146606666Y-84657200D01*
X146606666Y-84657200D02*
X146511428Y-84704819D01*
X146511428Y-84704819D02*
X146225714Y-84704819D01*
X146225714Y-84704819D02*
X146130476Y-84657200D01*
X146130476Y-84657200D02*
X146082857Y-84609580D01*
X167085714Y-78864819D02*
X167085714Y-77864819D01*
X167085714Y-77864819D02*
X167323809Y-77864819D01*
X167323809Y-77864819D02*
X167466666Y-77912438D01*
X167466666Y-77912438D02*
X167561904Y-78007676D01*
X167561904Y-78007676D02*
X167609523Y-78102914D01*
X167609523Y-78102914D02*
X167657142Y-78293390D01*
X167657142Y-78293390D02*
X167657142Y-78436247D01*
X167657142Y-78436247D02*
X167609523Y-78626723D01*
X167609523Y-78626723D02*
X167561904Y-78721961D01*
X167561904Y-78721961D02*
X167466666Y-78817200D01*
X167466666Y-78817200D02*
X167323809Y-78864819D01*
X167323809Y-78864819D02*
X167085714Y-78864819D01*
X168038095Y-77960057D02*
X168085714Y-77912438D01*
X168085714Y-77912438D02*
X168180952Y-77864819D01*
X168180952Y-77864819D02*
X168419047Y-77864819D01*
X168419047Y-77864819D02*
X168514285Y-77912438D01*
X168514285Y-77912438D02*
X168561904Y-77960057D01*
X168561904Y-77960057D02*
X168609523Y-78055295D01*
X168609523Y-78055295D02*
X168609523Y-78150533D01*
X168609523Y-78150533D02*
X168561904Y-78293390D01*
X168561904Y-78293390D02*
X167990476Y-78864819D01*
X167990476Y-78864819D02*
X168609523Y-78864819D01*
X169180952Y-78293390D02*
X169085714Y-78245771D01*
X169085714Y-78245771D02*
X169038095Y-78198152D01*
X169038095Y-78198152D02*
X168990476Y-78102914D01*
X168990476Y-78102914D02*
X168990476Y-78055295D01*
X168990476Y-78055295D02*
X169038095Y-77960057D01*
X169038095Y-77960057D02*
X169085714Y-77912438D01*
X169085714Y-77912438D02*
X169180952Y-77864819D01*
X169180952Y-77864819D02*
X169371428Y-77864819D01*
X169371428Y-77864819D02*
X169466666Y-77912438D01*
X169466666Y-77912438D02*
X169514285Y-77960057D01*
X169514285Y-77960057D02*
X169561904Y-78055295D01*
X169561904Y-78055295D02*
X169561904Y-78102914D01*
X169561904Y-78102914D02*
X169514285Y-78198152D01*
X169514285Y-78198152D02*
X169466666Y-78245771D01*
X169466666Y-78245771D02*
X169371428Y-78293390D01*
X169371428Y-78293390D02*
X169180952Y-78293390D01*
X169180952Y-78293390D02*
X169085714Y-78341009D01*
X169085714Y-78341009D02*
X169038095Y-78388628D01*
X169038095Y-78388628D02*
X168990476Y-78483866D01*
X168990476Y-78483866D02*
X168990476Y-78674342D01*
X168990476Y-78674342D02*
X169038095Y-78769580D01*
X169038095Y-78769580D02*
X169085714Y-78817200D01*
X169085714Y-78817200D02*
X169180952Y-78864819D01*
X169180952Y-78864819D02*
X169371428Y-78864819D01*
X169371428Y-78864819D02*
X169466666Y-78817200D01*
X169466666Y-78817200D02*
X169514285Y-78769580D01*
X169514285Y-78769580D02*
X169561904Y-78674342D01*
X169561904Y-78674342D02*
X169561904Y-78483866D01*
X169561904Y-78483866D02*
X169514285Y-78388628D01*
X169514285Y-78388628D02*
X169466666Y-78341009D01*
X169466666Y-78341009D02*
X169371428Y-78293390D01*
X109295714Y-73164819D02*
X109295714Y-72164819D01*
X109295714Y-72164819D02*
X109533809Y-72164819D01*
X109533809Y-72164819D02*
X109676666Y-72212438D01*
X109676666Y-72212438D02*
X109771904Y-72307676D01*
X109771904Y-72307676D02*
X109819523Y-72402914D01*
X109819523Y-72402914D02*
X109867142Y-72593390D01*
X109867142Y-72593390D02*
X109867142Y-72736247D01*
X109867142Y-72736247D02*
X109819523Y-72926723D01*
X109819523Y-72926723D02*
X109771904Y-73021961D01*
X109771904Y-73021961D02*
X109676666Y-73117200D01*
X109676666Y-73117200D02*
X109533809Y-73164819D01*
X109533809Y-73164819D02*
X109295714Y-73164819D01*
X110819523Y-73164819D02*
X110248095Y-73164819D01*
X110533809Y-73164819D02*
X110533809Y-72164819D01*
X110533809Y-72164819D02*
X110438571Y-72307676D01*
X110438571Y-72307676D02*
X110343333Y-72402914D01*
X110343333Y-72402914D02*
X110248095Y-72450533D01*
X111676666Y-72164819D02*
X111486190Y-72164819D01*
X111486190Y-72164819D02*
X111390952Y-72212438D01*
X111390952Y-72212438D02*
X111343333Y-72260057D01*
X111343333Y-72260057D02*
X111248095Y-72402914D01*
X111248095Y-72402914D02*
X111200476Y-72593390D01*
X111200476Y-72593390D02*
X111200476Y-72974342D01*
X111200476Y-72974342D02*
X111248095Y-73069580D01*
X111248095Y-73069580D02*
X111295714Y-73117200D01*
X111295714Y-73117200D02*
X111390952Y-73164819D01*
X111390952Y-73164819D02*
X111581428Y-73164819D01*
X111581428Y-73164819D02*
X111676666Y-73117200D01*
X111676666Y-73117200D02*
X111724285Y-73069580D01*
X111724285Y-73069580D02*
X111771904Y-72974342D01*
X111771904Y-72974342D02*
X111771904Y-72736247D01*
X111771904Y-72736247D02*
X111724285Y-72641009D01*
X111724285Y-72641009D02*
X111676666Y-72593390D01*
X111676666Y-72593390D02*
X111581428Y-72545771D01*
X111581428Y-72545771D02*
X111390952Y-72545771D01*
X111390952Y-72545771D02*
X111295714Y-72593390D01*
X111295714Y-72593390D02*
X111248095Y-72641009D01*
X111248095Y-72641009D02*
X111200476Y-72736247D01*
X126675714Y-84684819D02*
X126675714Y-83684819D01*
X126675714Y-83684819D02*
X126913809Y-83684819D01*
X126913809Y-83684819D02*
X127056666Y-83732438D01*
X127056666Y-83732438D02*
X127151904Y-83827676D01*
X127151904Y-83827676D02*
X127199523Y-83922914D01*
X127199523Y-83922914D02*
X127247142Y-84113390D01*
X127247142Y-84113390D02*
X127247142Y-84256247D01*
X127247142Y-84256247D02*
X127199523Y-84446723D01*
X127199523Y-84446723D02*
X127151904Y-84541961D01*
X127151904Y-84541961D02*
X127056666Y-84637200D01*
X127056666Y-84637200D02*
X126913809Y-84684819D01*
X126913809Y-84684819D02*
X126675714Y-84684819D01*
X127580476Y-83684819D02*
X128199523Y-83684819D01*
X128199523Y-83684819D02*
X127866190Y-84065771D01*
X127866190Y-84065771D02*
X128009047Y-84065771D01*
X128009047Y-84065771D02*
X128104285Y-84113390D01*
X128104285Y-84113390D02*
X128151904Y-84161009D01*
X128151904Y-84161009D02*
X128199523Y-84256247D01*
X128199523Y-84256247D02*
X128199523Y-84494342D01*
X128199523Y-84494342D02*
X128151904Y-84589580D01*
X128151904Y-84589580D02*
X128104285Y-84637200D01*
X128104285Y-84637200D02*
X128009047Y-84684819D01*
X128009047Y-84684819D02*
X127723333Y-84684819D01*
X127723333Y-84684819D02*
X127628095Y-84637200D01*
X127628095Y-84637200D02*
X127580476Y-84589580D01*
X129056666Y-83684819D02*
X128866190Y-83684819D01*
X128866190Y-83684819D02*
X128770952Y-83732438D01*
X128770952Y-83732438D02*
X128723333Y-83780057D01*
X128723333Y-83780057D02*
X128628095Y-83922914D01*
X128628095Y-83922914D02*
X128580476Y-84113390D01*
X128580476Y-84113390D02*
X128580476Y-84494342D01*
X128580476Y-84494342D02*
X128628095Y-84589580D01*
X128628095Y-84589580D02*
X128675714Y-84637200D01*
X128675714Y-84637200D02*
X128770952Y-84684819D01*
X128770952Y-84684819D02*
X128961428Y-84684819D01*
X128961428Y-84684819D02*
X129056666Y-84637200D01*
X129056666Y-84637200D02*
X129104285Y-84589580D01*
X129104285Y-84589580D02*
X129151904Y-84494342D01*
X129151904Y-84494342D02*
X129151904Y-84256247D01*
X129151904Y-84256247D02*
X129104285Y-84161009D01*
X129104285Y-84161009D02*
X129056666Y-84113390D01*
X129056666Y-84113390D02*
X128961428Y-84065771D01*
X128961428Y-84065771D02*
X128770952Y-84065771D01*
X128770952Y-84065771D02*
X128675714Y-84113390D01*
X128675714Y-84113390D02*
X128628095Y-84161009D01*
X128628095Y-84161009D02*
X128580476Y-84256247D01*
X120915714Y-90254819D02*
X120915714Y-89254819D01*
X120915714Y-89254819D02*
X121153809Y-89254819D01*
X121153809Y-89254819D02*
X121296666Y-89302438D01*
X121296666Y-89302438D02*
X121391904Y-89397676D01*
X121391904Y-89397676D02*
X121439523Y-89492914D01*
X121439523Y-89492914D02*
X121487142Y-89683390D01*
X121487142Y-89683390D02*
X121487142Y-89826247D01*
X121487142Y-89826247D02*
X121439523Y-90016723D01*
X121439523Y-90016723D02*
X121391904Y-90111961D01*
X121391904Y-90111961D02*
X121296666Y-90207200D01*
X121296666Y-90207200D02*
X121153809Y-90254819D01*
X121153809Y-90254819D02*
X120915714Y-90254819D01*
X122344285Y-89588152D02*
X122344285Y-90254819D01*
X122106190Y-89207200D02*
X121868095Y-89921485D01*
X121868095Y-89921485D02*
X122487142Y-89921485D01*
X122772857Y-89254819D02*
X123391904Y-89254819D01*
X123391904Y-89254819D02*
X123058571Y-89635771D01*
X123058571Y-89635771D02*
X123201428Y-89635771D01*
X123201428Y-89635771D02*
X123296666Y-89683390D01*
X123296666Y-89683390D02*
X123344285Y-89731009D01*
X123344285Y-89731009D02*
X123391904Y-89826247D01*
X123391904Y-89826247D02*
X123391904Y-90064342D01*
X123391904Y-90064342D02*
X123344285Y-90159580D01*
X123344285Y-90159580D02*
X123296666Y-90207200D01*
X123296666Y-90207200D02*
X123201428Y-90254819D01*
X123201428Y-90254819D02*
X122915714Y-90254819D01*
X122915714Y-90254819D02*
X122820476Y-90207200D01*
X122820476Y-90207200D02*
X122772857Y-90159580D01*
X126715714Y-90259819D02*
X126715714Y-89259819D01*
X126715714Y-89259819D02*
X126953809Y-89259819D01*
X126953809Y-89259819D02*
X127096666Y-89307438D01*
X127096666Y-89307438D02*
X127191904Y-89402676D01*
X127191904Y-89402676D02*
X127239523Y-89497914D01*
X127239523Y-89497914D02*
X127287142Y-89688390D01*
X127287142Y-89688390D02*
X127287142Y-89831247D01*
X127287142Y-89831247D02*
X127239523Y-90021723D01*
X127239523Y-90021723D02*
X127191904Y-90116961D01*
X127191904Y-90116961D02*
X127096666Y-90212200D01*
X127096666Y-90212200D02*
X126953809Y-90259819D01*
X126953809Y-90259819D02*
X126715714Y-90259819D01*
X128144285Y-89593152D02*
X128144285Y-90259819D01*
X127906190Y-89212200D02*
X127668095Y-89926485D01*
X127668095Y-89926485D02*
X128287142Y-89926485D01*
X129096666Y-89593152D02*
X129096666Y-90259819D01*
X128858571Y-89212200D02*
X128620476Y-89926485D01*
X128620476Y-89926485D02*
X129239523Y-89926485D01*
X161425714Y-84724819D02*
X161425714Y-83724819D01*
X161425714Y-83724819D02*
X161663809Y-83724819D01*
X161663809Y-83724819D02*
X161806666Y-83772438D01*
X161806666Y-83772438D02*
X161901904Y-83867676D01*
X161901904Y-83867676D02*
X161949523Y-83962914D01*
X161949523Y-83962914D02*
X161997142Y-84153390D01*
X161997142Y-84153390D02*
X161997142Y-84296247D01*
X161997142Y-84296247D02*
X161949523Y-84486723D01*
X161949523Y-84486723D02*
X161901904Y-84581961D01*
X161901904Y-84581961D02*
X161806666Y-84677200D01*
X161806666Y-84677200D02*
X161663809Y-84724819D01*
X161663809Y-84724819D02*
X161425714Y-84724819D01*
X162330476Y-83724819D02*
X162949523Y-83724819D01*
X162949523Y-83724819D02*
X162616190Y-84105771D01*
X162616190Y-84105771D02*
X162759047Y-84105771D01*
X162759047Y-84105771D02*
X162854285Y-84153390D01*
X162854285Y-84153390D02*
X162901904Y-84201009D01*
X162901904Y-84201009D02*
X162949523Y-84296247D01*
X162949523Y-84296247D02*
X162949523Y-84534342D01*
X162949523Y-84534342D02*
X162901904Y-84629580D01*
X162901904Y-84629580D02*
X162854285Y-84677200D01*
X162854285Y-84677200D02*
X162759047Y-84724819D01*
X162759047Y-84724819D02*
X162473333Y-84724819D01*
X162473333Y-84724819D02*
X162378095Y-84677200D01*
X162378095Y-84677200D02*
X162330476Y-84629580D01*
X163568571Y-83724819D02*
X163663809Y-83724819D01*
X163663809Y-83724819D02*
X163759047Y-83772438D01*
X163759047Y-83772438D02*
X163806666Y-83820057D01*
X163806666Y-83820057D02*
X163854285Y-83915295D01*
X163854285Y-83915295D02*
X163901904Y-84105771D01*
X163901904Y-84105771D02*
X163901904Y-84343866D01*
X163901904Y-84343866D02*
X163854285Y-84534342D01*
X163854285Y-84534342D02*
X163806666Y-84629580D01*
X163806666Y-84629580D02*
X163759047Y-84677200D01*
X163759047Y-84677200D02*
X163663809Y-84724819D01*
X163663809Y-84724819D02*
X163568571Y-84724819D01*
X163568571Y-84724819D02*
X163473333Y-84677200D01*
X163473333Y-84677200D02*
X163425714Y-84629580D01*
X163425714Y-84629580D02*
X163378095Y-84534342D01*
X163378095Y-84534342D02*
X163330476Y-84343866D01*
X163330476Y-84343866D02*
X163330476Y-84105771D01*
X163330476Y-84105771D02*
X163378095Y-83915295D01*
X163378095Y-83915295D02*
X163425714Y-83820057D01*
X163425714Y-83820057D02*
X163473333Y-83772438D01*
X163473333Y-83772438D02*
X163568571Y-83724819D01*
X155765714Y-84724819D02*
X155765714Y-83724819D01*
X155765714Y-83724819D02*
X156003809Y-83724819D01*
X156003809Y-83724819D02*
X156146666Y-83772438D01*
X156146666Y-83772438D02*
X156241904Y-83867676D01*
X156241904Y-83867676D02*
X156289523Y-83962914D01*
X156289523Y-83962914D02*
X156337142Y-84153390D01*
X156337142Y-84153390D02*
X156337142Y-84296247D01*
X156337142Y-84296247D02*
X156289523Y-84486723D01*
X156289523Y-84486723D02*
X156241904Y-84581961D01*
X156241904Y-84581961D02*
X156146666Y-84677200D01*
X156146666Y-84677200D02*
X156003809Y-84724819D01*
X156003809Y-84724819D02*
X155765714Y-84724819D01*
X156670476Y-83724819D02*
X157289523Y-83724819D01*
X157289523Y-83724819D02*
X156956190Y-84105771D01*
X156956190Y-84105771D02*
X157099047Y-84105771D01*
X157099047Y-84105771D02*
X157194285Y-84153390D01*
X157194285Y-84153390D02*
X157241904Y-84201009D01*
X157241904Y-84201009D02*
X157289523Y-84296247D01*
X157289523Y-84296247D02*
X157289523Y-84534342D01*
X157289523Y-84534342D02*
X157241904Y-84629580D01*
X157241904Y-84629580D02*
X157194285Y-84677200D01*
X157194285Y-84677200D02*
X157099047Y-84724819D01*
X157099047Y-84724819D02*
X156813333Y-84724819D01*
X156813333Y-84724819D02*
X156718095Y-84677200D01*
X156718095Y-84677200D02*
X156670476Y-84629580D01*
X158241904Y-84724819D02*
X157670476Y-84724819D01*
X157956190Y-84724819D02*
X157956190Y-83724819D01*
X157956190Y-83724819D02*
X157860952Y-83867676D01*
X157860952Y-83867676D02*
X157765714Y-83962914D01*
X157765714Y-83962914D02*
X157670476Y-84010533D01*
X138325714Y-90284819D02*
X138325714Y-89284819D01*
X138325714Y-89284819D02*
X138563809Y-89284819D01*
X138563809Y-89284819D02*
X138706666Y-89332438D01*
X138706666Y-89332438D02*
X138801904Y-89427676D01*
X138801904Y-89427676D02*
X138849523Y-89522914D01*
X138849523Y-89522914D02*
X138897142Y-89713390D01*
X138897142Y-89713390D02*
X138897142Y-89856247D01*
X138897142Y-89856247D02*
X138849523Y-90046723D01*
X138849523Y-90046723D02*
X138801904Y-90141961D01*
X138801904Y-90141961D02*
X138706666Y-90237200D01*
X138706666Y-90237200D02*
X138563809Y-90284819D01*
X138563809Y-90284819D02*
X138325714Y-90284819D01*
X139754285Y-89618152D02*
X139754285Y-90284819D01*
X139516190Y-89237200D02*
X139278095Y-89951485D01*
X139278095Y-89951485D02*
X139897142Y-89951485D01*
X140706666Y-89284819D02*
X140516190Y-89284819D01*
X140516190Y-89284819D02*
X140420952Y-89332438D01*
X140420952Y-89332438D02*
X140373333Y-89380057D01*
X140373333Y-89380057D02*
X140278095Y-89522914D01*
X140278095Y-89522914D02*
X140230476Y-89713390D01*
X140230476Y-89713390D02*
X140230476Y-90094342D01*
X140230476Y-90094342D02*
X140278095Y-90189580D01*
X140278095Y-90189580D02*
X140325714Y-90237200D01*
X140325714Y-90237200D02*
X140420952Y-90284819D01*
X140420952Y-90284819D02*
X140611428Y-90284819D01*
X140611428Y-90284819D02*
X140706666Y-90237200D01*
X140706666Y-90237200D02*
X140754285Y-90189580D01*
X140754285Y-90189580D02*
X140801904Y-90094342D01*
X140801904Y-90094342D02*
X140801904Y-89856247D01*
X140801904Y-89856247D02*
X140754285Y-89761009D01*
X140754285Y-89761009D02*
X140706666Y-89713390D01*
X140706666Y-89713390D02*
X140611428Y-89665771D01*
X140611428Y-89665771D02*
X140420952Y-89665771D01*
X140420952Y-89665771D02*
X140325714Y-89713390D01*
X140325714Y-89713390D02*
X140278095Y-89761009D01*
X140278095Y-89761009D02*
X140230476Y-89856247D01*
X109325714Y-90264819D02*
X109325714Y-89264819D01*
X109325714Y-89264819D02*
X109563809Y-89264819D01*
X109563809Y-89264819D02*
X109706666Y-89312438D01*
X109706666Y-89312438D02*
X109801904Y-89407676D01*
X109801904Y-89407676D02*
X109849523Y-89502914D01*
X109849523Y-89502914D02*
X109897142Y-89693390D01*
X109897142Y-89693390D02*
X109897142Y-89836247D01*
X109897142Y-89836247D02*
X109849523Y-90026723D01*
X109849523Y-90026723D02*
X109801904Y-90121961D01*
X109801904Y-90121961D02*
X109706666Y-90217200D01*
X109706666Y-90217200D02*
X109563809Y-90264819D01*
X109563809Y-90264819D02*
X109325714Y-90264819D01*
X110754285Y-89598152D02*
X110754285Y-90264819D01*
X110516190Y-89217200D02*
X110278095Y-89931485D01*
X110278095Y-89931485D02*
X110897142Y-89931485D01*
X111801904Y-90264819D02*
X111230476Y-90264819D01*
X111516190Y-90264819D02*
X111516190Y-89264819D01*
X111516190Y-89264819D02*
X111420952Y-89407676D01*
X111420952Y-89407676D02*
X111325714Y-89502914D01*
X111325714Y-89502914D02*
X111230476Y-89550533D01*
X144055714Y-96134819D02*
X144055714Y-95134819D01*
X144055714Y-95134819D02*
X144293809Y-95134819D01*
X144293809Y-95134819D02*
X144436666Y-95182438D01*
X144436666Y-95182438D02*
X144531904Y-95277676D01*
X144531904Y-95277676D02*
X144579523Y-95372914D01*
X144579523Y-95372914D02*
X144627142Y-95563390D01*
X144627142Y-95563390D02*
X144627142Y-95706247D01*
X144627142Y-95706247D02*
X144579523Y-95896723D01*
X144579523Y-95896723D02*
X144531904Y-95991961D01*
X144531904Y-95991961D02*
X144436666Y-96087200D01*
X144436666Y-96087200D02*
X144293809Y-96134819D01*
X144293809Y-96134819D02*
X144055714Y-96134819D01*
X145531904Y-95134819D02*
X145055714Y-95134819D01*
X145055714Y-95134819D02*
X145008095Y-95611009D01*
X145008095Y-95611009D02*
X145055714Y-95563390D01*
X145055714Y-95563390D02*
X145150952Y-95515771D01*
X145150952Y-95515771D02*
X145389047Y-95515771D01*
X145389047Y-95515771D02*
X145484285Y-95563390D01*
X145484285Y-95563390D02*
X145531904Y-95611009D01*
X145531904Y-95611009D02*
X145579523Y-95706247D01*
X145579523Y-95706247D02*
X145579523Y-95944342D01*
X145579523Y-95944342D02*
X145531904Y-96039580D01*
X145531904Y-96039580D02*
X145484285Y-96087200D01*
X145484285Y-96087200D02*
X145389047Y-96134819D01*
X145389047Y-96134819D02*
X145150952Y-96134819D01*
X145150952Y-96134819D02*
X145055714Y-96087200D01*
X145055714Y-96087200D02*
X145008095Y-96039580D01*
X145960476Y-95230057D02*
X146008095Y-95182438D01*
X146008095Y-95182438D02*
X146103333Y-95134819D01*
X146103333Y-95134819D02*
X146341428Y-95134819D01*
X146341428Y-95134819D02*
X146436666Y-95182438D01*
X146436666Y-95182438D02*
X146484285Y-95230057D01*
X146484285Y-95230057D02*
X146531904Y-95325295D01*
X146531904Y-95325295D02*
X146531904Y-95420533D01*
X146531904Y-95420533D02*
X146484285Y-95563390D01*
X146484285Y-95563390D02*
X145912857Y-96134819D01*
X145912857Y-96134819D02*
X146531904Y-96134819D01*
X144125714Y-90284819D02*
X144125714Y-89284819D01*
X144125714Y-89284819D02*
X144363809Y-89284819D01*
X144363809Y-89284819D02*
X144506666Y-89332438D01*
X144506666Y-89332438D02*
X144601904Y-89427676D01*
X144601904Y-89427676D02*
X144649523Y-89522914D01*
X144649523Y-89522914D02*
X144697142Y-89713390D01*
X144697142Y-89713390D02*
X144697142Y-89856247D01*
X144697142Y-89856247D02*
X144649523Y-90046723D01*
X144649523Y-90046723D02*
X144601904Y-90141961D01*
X144601904Y-90141961D02*
X144506666Y-90237200D01*
X144506666Y-90237200D02*
X144363809Y-90284819D01*
X144363809Y-90284819D02*
X144125714Y-90284819D01*
X145554285Y-89618152D02*
X145554285Y-90284819D01*
X145316190Y-89237200D02*
X145078095Y-89951485D01*
X145078095Y-89951485D02*
X145697142Y-89951485D01*
X145982857Y-89284819D02*
X146649523Y-89284819D01*
X146649523Y-89284819D02*
X146220952Y-90284819D01*
X103795714Y-84704819D02*
X103795714Y-83704819D01*
X103795714Y-83704819D02*
X104033809Y-83704819D01*
X104033809Y-83704819D02*
X104176666Y-83752438D01*
X104176666Y-83752438D02*
X104271904Y-83847676D01*
X104271904Y-83847676D02*
X104319523Y-83942914D01*
X104319523Y-83942914D02*
X104367142Y-84133390D01*
X104367142Y-84133390D02*
X104367142Y-84276247D01*
X104367142Y-84276247D02*
X104319523Y-84466723D01*
X104319523Y-84466723D02*
X104271904Y-84561961D01*
X104271904Y-84561961D02*
X104176666Y-84657200D01*
X104176666Y-84657200D02*
X104033809Y-84704819D01*
X104033809Y-84704819D02*
X103795714Y-84704819D01*
X105224285Y-84038152D02*
X105224285Y-84704819D01*
X104986190Y-83657200D02*
X104748095Y-84371485D01*
X104748095Y-84371485D02*
X105367142Y-84371485D01*
X105938571Y-83704819D02*
X106033809Y-83704819D01*
X106033809Y-83704819D02*
X106129047Y-83752438D01*
X106129047Y-83752438D02*
X106176666Y-83800057D01*
X106176666Y-83800057D02*
X106224285Y-83895295D01*
X106224285Y-83895295D02*
X106271904Y-84085771D01*
X106271904Y-84085771D02*
X106271904Y-84323866D01*
X106271904Y-84323866D02*
X106224285Y-84514342D01*
X106224285Y-84514342D02*
X106176666Y-84609580D01*
X106176666Y-84609580D02*
X106129047Y-84657200D01*
X106129047Y-84657200D02*
X106033809Y-84704819D01*
X106033809Y-84704819D02*
X105938571Y-84704819D01*
X105938571Y-84704819D02*
X105843333Y-84657200D01*
X105843333Y-84657200D02*
X105795714Y-84609580D01*
X105795714Y-84609580D02*
X105748095Y-84514342D01*
X105748095Y-84514342D02*
X105700476Y-84323866D01*
X105700476Y-84323866D02*
X105700476Y-84085771D01*
X105700476Y-84085771D02*
X105748095Y-83895295D01*
X105748095Y-83895295D02*
X105795714Y-83800057D01*
X105795714Y-83800057D02*
X105843333Y-83752438D01*
X105843333Y-83752438D02*
X105938571Y-83704819D01*
X115115714Y-84674819D02*
X115115714Y-83674819D01*
X115115714Y-83674819D02*
X115353809Y-83674819D01*
X115353809Y-83674819D02*
X115496666Y-83722438D01*
X115496666Y-83722438D02*
X115591904Y-83817676D01*
X115591904Y-83817676D02*
X115639523Y-83912914D01*
X115639523Y-83912914D02*
X115687142Y-84103390D01*
X115687142Y-84103390D02*
X115687142Y-84246247D01*
X115687142Y-84246247D02*
X115639523Y-84436723D01*
X115639523Y-84436723D02*
X115591904Y-84531961D01*
X115591904Y-84531961D02*
X115496666Y-84627200D01*
X115496666Y-84627200D02*
X115353809Y-84674819D01*
X115353809Y-84674819D02*
X115115714Y-84674819D01*
X116020476Y-83674819D02*
X116639523Y-83674819D01*
X116639523Y-83674819D02*
X116306190Y-84055771D01*
X116306190Y-84055771D02*
X116449047Y-84055771D01*
X116449047Y-84055771D02*
X116544285Y-84103390D01*
X116544285Y-84103390D02*
X116591904Y-84151009D01*
X116591904Y-84151009D02*
X116639523Y-84246247D01*
X116639523Y-84246247D02*
X116639523Y-84484342D01*
X116639523Y-84484342D02*
X116591904Y-84579580D01*
X116591904Y-84579580D02*
X116544285Y-84627200D01*
X116544285Y-84627200D02*
X116449047Y-84674819D01*
X116449047Y-84674819D02*
X116163333Y-84674819D01*
X116163333Y-84674819D02*
X116068095Y-84627200D01*
X116068095Y-84627200D02*
X116020476Y-84579580D01*
X117210952Y-84103390D02*
X117115714Y-84055771D01*
X117115714Y-84055771D02*
X117068095Y-84008152D01*
X117068095Y-84008152D02*
X117020476Y-83912914D01*
X117020476Y-83912914D02*
X117020476Y-83865295D01*
X117020476Y-83865295D02*
X117068095Y-83770057D01*
X117068095Y-83770057D02*
X117115714Y-83722438D01*
X117115714Y-83722438D02*
X117210952Y-83674819D01*
X117210952Y-83674819D02*
X117401428Y-83674819D01*
X117401428Y-83674819D02*
X117496666Y-83722438D01*
X117496666Y-83722438D02*
X117544285Y-83770057D01*
X117544285Y-83770057D02*
X117591904Y-83865295D01*
X117591904Y-83865295D02*
X117591904Y-83912914D01*
X117591904Y-83912914D02*
X117544285Y-84008152D01*
X117544285Y-84008152D02*
X117496666Y-84055771D01*
X117496666Y-84055771D02*
X117401428Y-84103390D01*
X117401428Y-84103390D02*
X117210952Y-84103390D01*
X117210952Y-84103390D02*
X117115714Y-84151009D01*
X117115714Y-84151009D02*
X117068095Y-84198628D01*
X117068095Y-84198628D02*
X117020476Y-84293866D01*
X117020476Y-84293866D02*
X117020476Y-84484342D01*
X117020476Y-84484342D02*
X117068095Y-84579580D01*
X117068095Y-84579580D02*
X117115714Y-84627200D01*
X117115714Y-84627200D02*
X117210952Y-84674819D01*
X117210952Y-84674819D02*
X117401428Y-84674819D01*
X117401428Y-84674819D02*
X117496666Y-84627200D01*
X117496666Y-84627200D02*
X117544285Y-84579580D01*
X117544285Y-84579580D02*
X117591904Y-84484342D01*
X117591904Y-84484342D02*
X117591904Y-84293866D01*
X117591904Y-84293866D02*
X117544285Y-84198628D01*
X117544285Y-84198628D02*
X117496666Y-84151009D01*
X117496666Y-84151009D02*
X117401428Y-84103390D01*
X132505714Y-73244819D02*
X132505714Y-72244819D01*
X132505714Y-72244819D02*
X132743809Y-72244819D01*
X132743809Y-72244819D02*
X132886666Y-72292438D01*
X132886666Y-72292438D02*
X132981904Y-72387676D01*
X132981904Y-72387676D02*
X133029523Y-72482914D01*
X133029523Y-72482914D02*
X133077142Y-72673390D01*
X133077142Y-72673390D02*
X133077142Y-72816247D01*
X133077142Y-72816247D02*
X133029523Y-73006723D01*
X133029523Y-73006723D02*
X132981904Y-73101961D01*
X132981904Y-73101961D02*
X132886666Y-73197200D01*
X132886666Y-73197200D02*
X132743809Y-73244819D01*
X132743809Y-73244819D02*
X132505714Y-73244819D01*
X134029523Y-73244819D02*
X133458095Y-73244819D01*
X133743809Y-73244819D02*
X133743809Y-72244819D01*
X133743809Y-72244819D02*
X133648571Y-72387676D01*
X133648571Y-72387676D02*
X133553333Y-72482914D01*
X133553333Y-72482914D02*
X133458095Y-72530533D01*
X134410476Y-72340057D02*
X134458095Y-72292438D01*
X134458095Y-72292438D02*
X134553333Y-72244819D01*
X134553333Y-72244819D02*
X134791428Y-72244819D01*
X134791428Y-72244819D02*
X134886666Y-72292438D01*
X134886666Y-72292438D02*
X134934285Y-72340057D01*
X134934285Y-72340057D02*
X134981904Y-72435295D01*
X134981904Y-72435295D02*
X134981904Y-72530533D01*
X134981904Y-72530533D02*
X134934285Y-72673390D01*
X134934285Y-72673390D02*
X134362857Y-73244819D01*
X134362857Y-73244819D02*
X134981904Y-73244819D01*
X149985714Y-84724819D02*
X149985714Y-83724819D01*
X149985714Y-83724819D02*
X150223809Y-83724819D01*
X150223809Y-83724819D02*
X150366666Y-83772438D01*
X150366666Y-83772438D02*
X150461904Y-83867676D01*
X150461904Y-83867676D02*
X150509523Y-83962914D01*
X150509523Y-83962914D02*
X150557142Y-84153390D01*
X150557142Y-84153390D02*
X150557142Y-84296247D01*
X150557142Y-84296247D02*
X150509523Y-84486723D01*
X150509523Y-84486723D02*
X150461904Y-84581961D01*
X150461904Y-84581961D02*
X150366666Y-84677200D01*
X150366666Y-84677200D02*
X150223809Y-84724819D01*
X150223809Y-84724819D02*
X149985714Y-84724819D01*
X150890476Y-83724819D02*
X151509523Y-83724819D01*
X151509523Y-83724819D02*
X151176190Y-84105771D01*
X151176190Y-84105771D02*
X151319047Y-84105771D01*
X151319047Y-84105771D02*
X151414285Y-84153390D01*
X151414285Y-84153390D02*
X151461904Y-84201009D01*
X151461904Y-84201009D02*
X151509523Y-84296247D01*
X151509523Y-84296247D02*
X151509523Y-84534342D01*
X151509523Y-84534342D02*
X151461904Y-84629580D01*
X151461904Y-84629580D02*
X151414285Y-84677200D01*
X151414285Y-84677200D02*
X151319047Y-84724819D01*
X151319047Y-84724819D02*
X151033333Y-84724819D01*
X151033333Y-84724819D02*
X150938095Y-84677200D01*
X150938095Y-84677200D02*
X150890476Y-84629580D01*
X151890476Y-83820057D02*
X151938095Y-83772438D01*
X151938095Y-83772438D02*
X152033333Y-83724819D01*
X152033333Y-83724819D02*
X152271428Y-83724819D01*
X152271428Y-83724819D02*
X152366666Y-83772438D01*
X152366666Y-83772438D02*
X152414285Y-83820057D01*
X152414285Y-83820057D02*
X152461904Y-83915295D01*
X152461904Y-83915295D02*
X152461904Y-84010533D01*
X152461904Y-84010533D02*
X152414285Y-84153390D01*
X152414285Y-84153390D02*
X151842857Y-84724819D01*
X151842857Y-84724819D02*
X152461904Y-84724819D01*
X120945714Y-84704819D02*
X120945714Y-83704819D01*
X120945714Y-83704819D02*
X121183809Y-83704819D01*
X121183809Y-83704819D02*
X121326666Y-83752438D01*
X121326666Y-83752438D02*
X121421904Y-83847676D01*
X121421904Y-83847676D02*
X121469523Y-83942914D01*
X121469523Y-83942914D02*
X121517142Y-84133390D01*
X121517142Y-84133390D02*
X121517142Y-84276247D01*
X121517142Y-84276247D02*
X121469523Y-84466723D01*
X121469523Y-84466723D02*
X121421904Y-84561961D01*
X121421904Y-84561961D02*
X121326666Y-84657200D01*
X121326666Y-84657200D02*
X121183809Y-84704819D01*
X121183809Y-84704819D02*
X120945714Y-84704819D01*
X121850476Y-83704819D02*
X122469523Y-83704819D01*
X122469523Y-83704819D02*
X122136190Y-84085771D01*
X122136190Y-84085771D02*
X122279047Y-84085771D01*
X122279047Y-84085771D02*
X122374285Y-84133390D01*
X122374285Y-84133390D02*
X122421904Y-84181009D01*
X122421904Y-84181009D02*
X122469523Y-84276247D01*
X122469523Y-84276247D02*
X122469523Y-84514342D01*
X122469523Y-84514342D02*
X122421904Y-84609580D01*
X122421904Y-84609580D02*
X122374285Y-84657200D01*
X122374285Y-84657200D02*
X122279047Y-84704819D01*
X122279047Y-84704819D02*
X121993333Y-84704819D01*
X121993333Y-84704819D02*
X121898095Y-84657200D01*
X121898095Y-84657200D02*
X121850476Y-84609580D01*
X122802857Y-83704819D02*
X123469523Y-83704819D01*
X123469523Y-83704819D02*
X123040952Y-84704819D01*
X150531905Y-67484819D02*
X150531905Y-66484819D01*
X150531905Y-66484819D02*
X150770000Y-66484819D01*
X150770000Y-66484819D02*
X150912857Y-66532438D01*
X150912857Y-66532438D02*
X151008095Y-66627676D01*
X151008095Y-66627676D02*
X151055714Y-66722914D01*
X151055714Y-66722914D02*
X151103333Y-66913390D01*
X151103333Y-66913390D02*
X151103333Y-67056247D01*
X151103333Y-67056247D02*
X151055714Y-67246723D01*
X151055714Y-67246723D02*
X151008095Y-67341961D01*
X151008095Y-67341961D02*
X150912857Y-67437200D01*
X150912857Y-67437200D02*
X150770000Y-67484819D01*
X150770000Y-67484819D02*
X150531905Y-67484819D01*
X151960476Y-66484819D02*
X151770000Y-66484819D01*
X151770000Y-66484819D02*
X151674762Y-66532438D01*
X151674762Y-66532438D02*
X151627143Y-66580057D01*
X151627143Y-66580057D02*
X151531905Y-66722914D01*
X151531905Y-66722914D02*
X151484286Y-66913390D01*
X151484286Y-66913390D02*
X151484286Y-67294342D01*
X151484286Y-67294342D02*
X151531905Y-67389580D01*
X151531905Y-67389580D02*
X151579524Y-67437200D01*
X151579524Y-67437200D02*
X151674762Y-67484819D01*
X151674762Y-67484819D02*
X151865238Y-67484819D01*
X151865238Y-67484819D02*
X151960476Y-67437200D01*
X151960476Y-67437200D02*
X152008095Y-67389580D01*
X152008095Y-67389580D02*
X152055714Y-67294342D01*
X152055714Y-67294342D02*
X152055714Y-67056247D01*
X152055714Y-67056247D02*
X152008095Y-66961009D01*
X152008095Y-66961009D02*
X151960476Y-66913390D01*
X151960476Y-66913390D02*
X151865238Y-66865771D01*
X151865238Y-66865771D02*
X151674762Y-66865771D01*
X151674762Y-66865771D02*
X151579524Y-66913390D01*
X151579524Y-66913390D02*
X151531905Y-66961009D01*
X151531905Y-66961009D02*
X151484286Y-67056247D01*
D11*
%TO.C,D49*%
X154230000Y-85680000D02*
X154230000Y-89080000D01*
X154230000Y-85680000D02*
X154830000Y-85080000D01*
X159830000Y-85080000D02*
X154830000Y-85080000D01*
X159830000Y-89080000D02*
X154230000Y-89080000D01*
X159830000Y-89080000D02*
X159830000Y-85080000D01*
%TO.C,D1*%
X119310000Y-62575000D02*
X119310000Y-65975000D01*
X119310000Y-62575000D02*
X119910000Y-61975000D01*
X124910000Y-61975000D02*
X119910000Y-61975000D01*
X124910000Y-65975000D02*
X119310000Y-65975000D01*
X124910000Y-65975000D02*
X124910000Y-61975000D01*
%TO.C,D3*%
X131000000Y-62590000D02*
X131000000Y-65990000D01*
X131000000Y-62590000D02*
X131600000Y-61990000D01*
X136600000Y-61990000D02*
X131600000Y-61990000D01*
X136600000Y-65990000D02*
X131000000Y-65990000D01*
X136600000Y-65990000D02*
X136600000Y-61990000D01*
%TO.C,D51*%
X148460000Y-90760000D02*
X148460000Y-94760000D01*
X148460000Y-90760000D02*
X154060000Y-90760000D01*
X148460000Y-94760000D02*
X153460000Y-94760000D01*
X154060000Y-94160000D02*
X153460000Y-94760000D01*
X154060000Y-94160000D02*
X154060000Y-90760000D01*
%TO.C,D25*%
X148380000Y-74150000D02*
X148380000Y-77550000D01*
X148380000Y-74150000D02*
X148980000Y-73550000D01*
X153980000Y-73550000D02*
X148980000Y-73550000D01*
X153980000Y-77550000D02*
X148380000Y-77550000D01*
X153980000Y-77550000D02*
X153980000Y-73550000D01*
%TO.C,D19*%
X113500000Y-74200000D02*
X113500000Y-77600000D01*
X113500000Y-74200000D02*
X114100000Y-73600000D01*
X119100000Y-73600000D02*
X114100000Y-73600000D01*
X119100000Y-77600000D02*
X113500000Y-77600000D01*
X119100000Y-77600000D02*
X119100000Y-73600000D01*
%TO.C,D26*%
X154170000Y-74180000D02*
X154170000Y-77580000D01*
X154170000Y-74180000D02*
X154770000Y-73580000D01*
X159770000Y-73580000D02*
X154770000Y-73580000D01*
X159770000Y-77580000D02*
X154170000Y-77580000D01*
X159770000Y-77580000D02*
X159770000Y-73580000D01*
%TO.C,D21*%
X125030000Y-74160000D02*
X125030000Y-77560000D01*
X125030000Y-74160000D02*
X125630000Y-73560000D01*
X130630000Y-73560000D02*
X125630000Y-73560000D01*
X130630000Y-77560000D02*
X125030000Y-77560000D01*
X130630000Y-77560000D02*
X130630000Y-73560000D01*
%TO.C,D55*%
X125090000Y-90790000D02*
X125090000Y-94790000D01*
X125090000Y-90790000D02*
X130690000Y-90790000D01*
X125090000Y-94790000D02*
X130090000Y-94790000D01*
X130690000Y-94190000D02*
X130090000Y-94790000D01*
X130690000Y-94190000D02*
X130690000Y-90790000D01*
%TO.C,D56*%
X119270000Y-90790000D02*
X119270000Y-94790000D01*
X119270000Y-90790000D02*
X124870000Y-90790000D01*
X119270000Y-94790000D02*
X124270000Y-94790000D01*
X124870000Y-94190000D02*
X124270000Y-94790000D01*
X124870000Y-94190000D02*
X124870000Y-90790000D01*
%TO.C,D17*%
X102190000Y-74130000D02*
X102190000Y-77530000D01*
X102190000Y-74130000D02*
X102790000Y-73530000D01*
X107790000Y-73530000D02*
X102790000Y-73530000D01*
X107790000Y-77530000D02*
X102190000Y-77530000D01*
X107790000Y-77530000D02*
X107790000Y-73530000D01*
%TO.C,D54*%
X130920000Y-90810000D02*
X130920000Y-94810000D01*
X130920000Y-90810000D02*
X136520000Y-90810000D01*
X130920000Y-94810000D02*
X135920000Y-94810000D01*
X136520000Y-94210000D02*
X135920000Y-94810000D01*
X136520000Y-94210000D02*
X136520000Y-90810000D01*
%TO.C,D2*%
X125180000Y-62545000D02*
X125180000Y-65945000D01*
X125180000Y-62545000D02*
X125780000Y-61945000D01*
X130780000Y-61945000D02*
X125780000Y-61945000D01*
X130780000Y-65945000D02*
X125180000Y-65945000D01*
X130780000Y-65945000D02*
X130780000Y-61945000D01*
%TO.C,D23*%
X136710000Y-74180000D02*
X136710000Y-77580000D01*
X136710000Y-74180000D02*
X137310000Y-73580000D01*
X142310000Y-73580000D02*
X137310000Y-73580000D01*
X142310000Y-77580000D02*
X136710000Y-77580000D01*
X142310000Y-77580000D02*
X142310000Y-73580000D01*
%TO.C,D7*%
X159990000Y-67830000D02*
X159990000Y-71830000D01*
X159990000Y-67830000D02*
X165590000Y-67830000D01*
X159990000Y-71830000D02*
X164990000Y-71830000D01*
X165590000Y-71230000D02*
X164990000Y-71830000D01*
X165590000Y-71230000D02*
X165590000Y-67830000D01*
%TO.C,D35*%
X130960000Y-79320000D02*
X130960000Y-83320000D01*
X130960000Y-79320000D02*
X136560000Y-79320000D01*
X130960000Y-83320000D02*
X135960000Y-83320000D01*
X136560000Y-82720000D02*
X135960000Y-83320000D01*
X136560000Y-82720000D02*
X136560000Y-79320000D01*
%TO.C,D13*%
X125140000Y-67870000D02*
X125140000Y-71870000D01*
X125140000Y-67870000D02*
X130740000Y-67870000D01*
X125140000Y-71870000D02*
X130140000Y-71870000D01*
X130740000Y-71270000D02*
X130140000Y-71870000D01*
X130740000Y-71270000D02*
X130740000Y-67870000D01*
%TO.C,D50*%
X160020000Y-85670000D02*
X160020000Y-89070000D01*
X160020000Y-85670000D02*
X160620000Y-85070000D01*
X165620000Y-85070000D02*
X160620000Y-85070000D01*
X165620000Y-89070000D02*
X160020000Y-89070000D01*
X165620000Y-89070000D02*
X165620000Y-85070000D01*
%TO.C,D24*%
X142550000Y-74200000D02*
X142550000Y-77600000D01*
X142550000Y-74200000D02*
X143150000Y-73600000D01*
X148150000Y-73600000D02*
X143150000Y-73600000D01*
X148150000Y-77600000D02*
X142550000Y-77600000D01*
X148150000Y-77600000D02*
X148150000Y-73600000D01*
%TO.C,D15*%
X113600000Y-67870000D02*
X113600000Y-71870000D01*
X113600000Y-67870000D02*
X119200000Y-67870000D01*
X113600000Y-71870000D02*
X118600000Y-71870000D01*
X119200000Y-71270000D02*
X118600000Y-71870000D01*
X119200000Y-71270000D02*
X119200000Y-67870000D01*
%TO.C,D27*%
X159890000Y-74160000D02*
X159890000Y-77560000D01*
X159890000Y-74160000D02*
X160490000Y-73560000D01*
X165490000Y-73560000D02*
X160490000Y-73560000D01*
X165490000Y-77560000D02*
X159890000Y-77560000D01*
X165490000Y-77560000D02*
X165490000Y-73560000D01*
%TO.C,D53*%
X136720000Y-90770000D02*
X136720000Y-94770000D01*
X136720000Y-90770000D02*
X142320000Y-90770000D01*
X136720000Y-94770000D02*
X141720000Y-94770000D01*
X142320000Y-94170000D02*
X141720000Y-94770000D01*
X142320000Y-94170000D02*
X142320000Y-90770000D01*
%TO.C,D39*%
X107810000Y-79330000D02*
X107810000Y-83330000D01*
X107810000Y-79330000D02*
X113410000Y-79330000D01*
X107810000Y-83330000D02*
X112810000Y-83330000D01*
X113410000Y-82730000D02*
X112810000Y-83330000D01*
X113410000Y-82730000D02*
X113410000Y-79330000D01*
%TO.C,D18*%
X107840000Y-74210000D02*
X107840000Y-77610000D01*
X107840000Y-74210000D02*
X108440000Y-73610000D01*
X113440000Y-73610000D02*
X108440000Y-73610000D01*
X113440000Y-77610000D02*
X107840000Y-77610000D01*
X113440000Y-77610000D02*
X113440000Y-73610000D01*
%TO.C,D42*%
X113510000Y-85680000D02*
X113510000Y-89080000D01*
X113510000Y-85680000D02*
X114110000Y-85080000D01*
X119110000Y-85080000D02*
X114110000Y-85080000D01*
X119110000Y-89080000D02*
X113510000Y-89080000D01*
X119110000Y-89080000D02*
X119110000Y-85080000D01*
%TO.C,D20*%
X119260000Y-74180000D02*
X119260000Y-77580000D01*
X119260000Y-74180000D02*
X119860000Y-73580000D01*
X124860000Y-73580000D02*
X119860000Y-73580000D01*
X124860000Y-77580000D02*
X119260000Y-77580000D01*
X124860000Y-77580000D02*
X124860000Y-73580000D01*
%TO.C,D9*%
X148440000Y-67890000D02*
X148440000Y-71890000D01*
X148440000Y-67890000D02*
X154040000Y-67890000D01*
X148440000Y-71890000D02*
X153440000Y-71890000D01*
X154040000Y-71290000D02*
X153440000Y-71890000D01*
X154040000Y-71290000D02*
X154040000Y-67890000D01*
%TO.C,D8*%
X154240000Y-67830000D02*
X154240000Y-71830000D01*
X154240000Y-67830000D02*
X159840000Y-67830000D01*
X154240000Y-71830000D02*
X159240000Y-71830000D01*
X159840000Y-71230000D02*
X159240000Y-71830000D01*
X159840000Y-71230000D02*
X159840000Y-67830000D01*
%TO.C,D5*%
X142640000Y-62580000D02*
X142640000Y-65980000D01*
X142640000Y-62580000D02*
X143240000Y-61980000D01*
X148240000Y-61980000D02*
X143240000Y-61980000D01*
X148240000Y-65980000D02*
X142640000Y-65980000D01*
X148240000Y-65980000D02*
X148240000Y-61980000D01*
%TO.C,D29*%
X165500000Y-79320000D02*
X165500000Y-83320000D01*
X165500000Y-79320000D02*
X171100000Y-79320000D01*
X165500000Y-83320000D02*
X170500000Y-83320000D01*
X171100000Y-82720000D02*
X170500000Y-83320000D01*
X171100000Y-82720000D02*
X171100000Y-79320000D01*
%TO.C,D45*%
X130920000Y-85640000D02*
X130920000Y-89040000D01*
X130920000Y-85640000D02*
X131520000Y-85040000D01*
X136520000Y-85040000D02*
X131520000Y-85040000D01*
X136520000Y-89040000D02*
X130920000Y-89040000D01*
X136520000Y-89040000D02*
X136520000Y-85040000D01*
%TO.C,D48*%
X148380000Y-85670000D02*
X148380000Y-89070000D01*
X148380000Y-85670000D02*
X148980000Y-85070000D01*
X153980000Y-85070000D02*
X148980000Y-85070000D01*
X153980000Y-89070000D02*
X148380000Y-89070000D01*
X153980000Y-89070000D02*
X153980000Y-85070000D01*
%TO.C,D34*%
X136770000Y-79350000D02*
X136770000Y-83350000D01*
X136770000Y-79350000D02*
X142370000Y-79350000D01*
X136770000Y-83350000D02*
X141770000Y-83350000D01*
X142370000Y-82750000D02*
X141770000Y-83350000D01*
X142370000Y-82750000D02*
X142370000Y-79350000D01*
%TO.C,D14*%
X119400000Y-67850000D02*
X119400000Y-71850000D01*
X119400000Y-67850000D02*
X125000000Y-67850000D01*
X119400000Y-71850000D02*
X124400000Y-71850000D01*
X125000000Y-71250000D02*
X124400000Y-71850000D01*
X125000000Y-71250000D02*
X125000000Y-67850000D01*
%TO.C,D10*%
X142610000Y-67870000D02*
X142610000Y-71870000D01*
X142610000Y-67870000D02*
X148210000Y-67870000D01*
X142610000Y-71870000D02*
X147610000Y-71870000D01*
X148210000Y-71270000D02*
X147610000Y-71870000D01*
X148210000Y-71270000D02*
X148210000Y-67870000D01*
%TO.C,D11*%
X136740000Y-67890000D02*
X136740000Y-71890000D01*
X136740000Y-67890000D02*
X142340000Y-67890000D01*
X136740000Y-71890000D02*
X141740000Y-71890000D01*
X142340000Y-71290000D02*
X141740000Y-71890000D01*
X142340000Y-71290000D02*
X142340000Y-67890000D01*
%TO.C,D4*%
X136790000Y-62560000D02*
X136790000Y-65960000D01*
X136790000Y-62560000D02*
X137390000Y-61960000D01*
X142390000Y-61960000D02*
X137390000Y-61960000D01*
X142390000Y-65960000D02*
X136790000Y-65960000D01*
X142390000Y-65960000D02*
X142390000Y-61960000D01*
%TO.C,D22*%
X130870000Y-74160000D02*
X130870000Y-77560000D01*
X130870000Y-74160000D02*
X131470000Y-73560000D01*
X136470000Y-73560000D02*
X131470000Y-73560000D01*
X136470000Y-77560000D02*
X130870000Y-77560000D01*
X136470000Y-77560000D02*
X136470000Y-73560000D01*
%TO.C,D33*%
X142640000Y-79300000D02*
X142640000Y-83300000D01*
X142640000Y-79300000D02*
X148240000Y-79300000D01*
X142640000Y-83300000D02*
X147640000Y-83300000D01*
X148240000Y-82700000D02*
X147640000Y-83300000D01*
X148240000Y-82700000D02*
X148240000Y-79300000D01*
%TO.C,D28*%
X165500000Y-74130000D02*
X165500000Y-77530000D01*
X165500000Y-74130000D02*
X166100000Y-73530000D01*
X171100000Y-73530000D02*
X166100000Y-73530000D01*
X171100000Y-77530000D02*
X165500000Y-77530000D01*
X171100000Y-77530000D02*
X171100000Y-73530000D01*
%TO.C,D16*%
X107710000Y-67820000D02*
X107710000Y-71820000D01*
X107710000Y-67820000D02*
X113310000Y-67820000D01*
X107710000Y-71820000D02*
X112710000Y-71820000D01*
X113310000Y-71220000D02*
X112710000Y-71820000D01*
X113310000Y-71220000D02*
X113310000Y-67820000D01*
%TO.C,D36*%
X125090000Y-79300000D02*
X125090000Y-83300000D01*
X125090000Y-79300000D02*
X130690000Y-79300000D01*
X125090000Y-83300000D02*
X130090000Y-83300000D01*
X130690000Y-82700000D02*
X130090000Y-83300000D01*
X130690000Y-82700000D02*
X130690000Y-79300000D01*
%TO.C,D43*%
X119330000Y-85650000D02*
X119330000Y-89050000D01*
X119330000Y-85650000D02*
X119930000Y-85050000D01*
X124930000Y-85050000D02*
X119930000Y-85050000D01*
X124930000Y-89050000D02*
X119330000Y-89050000D01*
X124930000Y-89050000D02*
X124930000Y-85050000D01*
%TO.C,D44*%
X125130000Y-85655000D02*
X125130000Y-89055000D01*
X125130000Y-85655000D02*
X125730000Y-85055000D01*
X130730000Y-85055000D02*
X125730000Y-85055000D01*
X130730000Y-89055000D02*
X125130000Y-89055000D01*
X130730000Y-89055000D02*
X130730000Y-85055000D01*
%TO.C,D30*%
X159840000Y-79310000D02*
X159840000Y-83310000D01*
X159840000Y-79310000D02*
X165440000Y-79310000D01*
X159840000Y-83310000D02*
X164840000Y-83310000D01*
X165440000Y-82710000D02*
X164840000Y-83310000D01*
X165440000Y-82710000D02*
X165440000Y-79310000D01*
%TO.C,D31*%
X154210000Y-79310000D02*
X154210000Y-83310000D01*
X154210000Y-79310000D02*
X159810000Y-79310000D01*
X154210000Y-83310000D02*
X159210000Y-83310000D01*
X159810000Y-82710000D02*
X159210000Y-83310000D01*
X159810000Y-82710000D02*
X159810000Y-79310000D01*
%TO.C,D46*%
X136740000Y-85680000D02*
X136740000Y-89080000D01*
X136740000Y-85680000D02*
X137340000Y-85080000D01*
X142340000Y-85080000D02*
X137340000Y-85080000D01*
X142340000Y-89080000D02*
X136740000Y-89080000D01*
X142340000Y-89080000D02*
X142340000Y-85080000D01*
%TO.C,D41*%
X107740000Y-85660000D02*
X107740000Y-89060000D01*
X107740000Y-85660000D02*
X108340000Y-85060000D01*
X113340000Y-85060000D02*
X108340000Y-85060000D01*
X113340000Y-89060000D02*
X107740000Y-89060000D01*
X113340000Y-89060000D02*
X113340000Y-85060000D01*
%TO.C,D52*%
X142470000Y-90770000D02*
X142470000Y-94770000D01*
X142470000Y-90770000D02*
X148070000Y-90770000D01*
X142470000Y-94770000D02*
X147470000Y-94770000D01*
X148070000Y-94170000D02*
X147470000Y-94770000D01*
X148070000Y-94170000D02*
X148070000Y-90770000D01*
%TO.C,D47*%
X142540000Y-85680000D02*
X142540000Y-89080000D01*
X142540000Y-85680000D02*
X143140000Y-85080000D01*
X148140000Y-85080000D02*
X143140000Y-85080000D01*
X148140000Y-89080000D02*
X142540000Y-89080000D01*
X148140000Y-89080000D02*
X148140000Y-85080000D01*
%TO.C,D40*%
X102210000Y-79330000D02*
X102210000Y-83330000D01*
X102210000Y-79330000D02*
X107810000Y-79330000D01*
X102210000Y-83330000D02*
X107210000Y-83330000D01*
X107810000Y-82730000D02*
X107210000Y-83330000D01*
X107810000Y-82730000D02*
X107810000Y-79330000D01*
%TO.C,D38*%
X113530000Y-79330000D02*
X113530000Y-83330000D01*
X113530000Y-79330000D02*
X119130000Y-79330000D01*
X113530000Y-83330000D02*
X118530000Y-83330000D01*
X119130000Y-82730000D02*
X118530000Y-83330000D01*
X119130000Y-82730000D02*
X119130000Y-79330000D01*
%TO.C,D12*%
X130920000Y-67880000D02*
X130920000Y-71880000D01*
X130920000Y-67880000D02*
X136520000Y-67880000D01*
X130920000Y-71880000D02*
X135920000Y-71880000D01*
X136520000Y-71280000D02*
X135920000Y-71880000D01*
X136520000Y-71280000D02*
X136520000Y-67880000D01*
%TO.C,D32*%
X148400000Y-79290000D02*
X148400000Y-83290000D01*
X148400000Y-79290000D02*
X154000000Y-79290000D01*
X148400000Y-83290000D02*
X153400000Y-83290000D01*
X154000000Y-82690000D02*
X153400000Y-83290000D01*
X154000000Y-82690000D02*
X154000000Y-79290000D01*
%TO.C,D37*%
X119360000Y-79290000D02*
X119360000Y-83290000D01*
X119360000Y-79290000D02*
X124960000Y-79290000D01*
X119360000Y-83290000D02*
X124360000Y-83290000D01*
X124960000Y-82690000D02*
X124360000Y-83290000D01*
X124960000Y-82690000D02*
X124960000Y-79290000D01*
%TO.C,D6*%
X148470000Y-62560000D02*
X148470000Y-65960000D01*
X148470000Y-62560000D02*
X149070000Y-61960000D01*
X154070000Y-61960000D02*
X149070000Y-61960000D01*
X154070000Y-65960000D02*
X148470000Y-65960000D01*
X154070000Y-65960000D02*
X154070000Y-61960000D01*
%TD*%
M02*
