%TF.GenerationSoftware,KiCad,Pcbnew,9.0.3*%
%TF.CreationDate,2025-07-31T16:26:09+05:30*%
%TF.ProjectId,new_ledMatrix,6e65775f-6c65-4644-9d61-747269782e6b,rev?*%
%TF.SameCoordinates,Original*%
%TF.FileFunction,Legend,Bot*%
%TF.FilePolarity,Positive*%
%FSLAX46Y46*%
G04 Gerber Fmt 4.6, Leading zero omitted, Abs format (unit mm)*
G04 Created by KiCad (PCBNEW 9.0.3) date 2025-07-31 16:26:09*
%MOMM*%
%LPD*%
G01*
G04 APERTURE LIST*
%ADD10C,0.150000*%
%ADD11C,0.120000*%
G04 APERTURE END LIST*
D10*
X139749580Y-68805833D02*
X139797200Y-68758214D01*
X139797200Y-68758214D02*
X139844819Y-68615357D01*
X139844819Y-68615357D02*
X139844819Y-68520119D01*
X139844819Y-68520119D02*
X139797200Y-68377262D01*
X139797200Y-68377262D02*
X139701961Y-68282024D01*
X139701961Y-68282024D02*
X139606723Y-68234405D01*
X139606723Y-68234405D02*
X139416247Y-68186786D01*
X139416247Y-68186786D02*
X139273390Y-68186786D01*
X139273390Y-68186786D02*
X139082914Y-68234405D01*
X139082914Y-68234405D02*
X138987676Y-68282024D01*
X138987676Y-68282024D02*
X138892438Y-68377262D01*
X138892438Y-68377262D02*
X138844819Y-68520119D01*
X138844819Y-68520119D02*
X138844819Y-68615357D01*
X138844819Y-68615357D02*
X138892438Y-68758214D01*
X138892438Y-68758214D02*
X138940057Y-68805833D01*
X139844819Y-69758214D02*
X139844819Y-69186786D01*
X139844819Y-69472500D02*
X138844819Y-69472500D01*
X138844819Y-69472500D02*
X138987676Y-69377262D01*
X138987676Y-69377262D02*
X139082914Y-69282024D01*
X139082914Y-69282024D02*
X139130533Y-69186786D01*
X111916666Y-70384819D02*
X112249999Y-69908628D01*
X112488094Y-70384819D02*
X112488094Y-69384819D01*
X112488094Y-69384819D02*
X112107142Y-69384819D01*
X112107142Y-69384819D02*
X112011904Y-69432438D01*
X112011904Y-69432438D02*
X111964285Y-69480057D01*
X111964285Y-69480057D02*
X111916666Y-69575295D01*
X111916666Y-69575295D02*
X111916666Y-69718152D01*
X111916666Y-69718152D02*
X111964285Y-69813390D01*
X111964285Y-69813390D02*
X112011904Y-69861009D01*
X112011904Y-69861009D02*
X112107142Y-69908628D01*
X112107142Y-69908628D02*
X112488094Y-69908628D01*
X110964285Y-70384819D02*
X111535713Y-70384819D01*
X111249999Y-70384819D02*
X111249999Y-69384819D01*
X111249999Y-69384819D02*
X111345237Y-69527676D01*
X111345237Y-69527676D02*
X111440475Y-69622914D01*
X111440475Y-69622914D02*
X111535713Y-69670533D01*
D11*
%TO.C,TP1*%
X127200000Y-71700000D02*
G75*
G02*
X124300000Y-71700000I-1450000J0D01*
G01*
X124300000Y-71700000D02*
G75*
G02*
X127200000Y-71700000I1450000J0D01*
G01*
%TO.C,TP3*%
X112700000Y-71800000D02*
G75*
G02*
X109800000Y-71800000I-1450000J0D01*
G01*
X109800000Y-71800000D02*
G75*
G02*
X112700000Y-71800000I1450000J0D01*
G01*
%TO.C,TP2*%
X142950000Y-62050000D02*
G75*
G02*
X140050000Y-62050000I-1450000J0D01*
G01*
X140050000Y-62050000D02*
G75*
G02*
X142950000Y-62050000I1450000J0D01*
G01*
%TO.C,C1*%
X127730000Y-63612500D02*
X131580000Y-63612500D01*
X127730000Y-73268063D02*
X127730000Y-63612500D01*
X128794437Y-74332500D02*
X127730000Y-73268063D01*
X128794437Y-74332500D02*
X131580000Y-74332500D01*
X135850000Y-75822500D02*
X135850000Y-74572500D01*
X136475000Y-75197500D02*
X135225000Y-75197500D01*
X137385563Y-74332500D02*
X134600000Y-74332500D01*
X137385563Y-74332500D02*
X138450000Y-73268063D01*
X138450000Y-63612500D02*
X134600000Y-63612500D01*
X138450000Y-73268063D02*
X138450000Y-63612500D01*
%TO.C,R1*%
X111022936Y-69010000D02*
X112477064Y-69010000D01*
X111022936Y-67190000D02*
X112477064Y-67190000D01*
%TD*%
M02*
